<svg width="314" height="246" viewBox="0 0 314 246" fill="none" xmlns="http://www.w3.org/2000/svg">
<path fill-rule="evenodd" clip-rule="evenodd" d="M101.237 68.4857C127.069 58.2958 159.235 69.2033 158.598 34.407C157.964 -0.389282 67.2018 -20.4437 60.3943 34.407C53.5868 89.2557 79.4997 77.0612 101.237 68.4857Z" fill="#FEF6F4"/>
<mask id="mask0" mask-type="alpha" maskUnits="userSpaceOnUse" x="23" y="21" width="290" height="220">
<path fill-rule="evenodd" clip-rule="evenodd" d="M23.1558 21.01H312.409V240.921H23.1558V21.01Z" fill="white"/>
</mask>
<g mask="url(#mask0)">
<path fill-rule="evenodd" clip-rule="evenodd" d="M293.197 176.841C261.688 223.712 164.738 257.231 84.2695 232.617C3.79866 208 13.1268 135.714 53.1894 99.364C93.252 63.0144 143.387 76.3474 151.999 64.1184C160.614 51.8873 189.789 2.15189 246.723 28.7C303.655 55.246 334.986 114.685 293.197 176.841Z" fill="#FEF6F4"/>
</g>
<path fill-rule="evenodd" clip-rule="evenodd" d="M214.632 41.2405L238.114 40.5879C238.114 40.5879 233.64 33.9193 238.387 29.8918C241.911 26.897 244.346 27.3057 245.993 29.0216C245.816 26.1224 246.645 23.1826 249.747 21.1962C252.904 19.1815 256.006 20.7876 258.644 23.5648C257.516 19.5759 257.911 15.4121 262.196 12.4743C273.272 4.86648 284.238 36.0968 284.238 36.0968L301.531 40.6956L214.632 41.2405Z" fill="#F4D4CE"/>
<path fill-rule="evenodd" clip-rule="evenodd" d="M28.318 48.8517L42.4555 48.4593C42.4555 48.4593 39.7601 44.444 42.6181 42.0205C44.7402 40.2172 46.2058 40.4632 47.1978 41.496C47.09 39.7496 47.5901 37.9808 49.4561 36.7853C51.3567 35.5716 53.2247 36.5393 54.8143 38.2105C54.1334 35.8095 54.3712 33.3047 56.9507 31.5339C63.618 26.9533 70.2202 45.7553 70.2202 45.7553L80.6297 48.5244L28.318 48.8517Z" fill="#F4D4CE"/>
<path fill-rule="evenodd" clip-rule="evenodd" d="M108.947 244.842L79.5056 244.023C79.5056 244.023 85.1179 235.663 79.1641 230.613C74.7471 226.86 71.6939 227.372 69.6287 229.521C69.8523 225.888 68.8095 222.202 64.921 219.711C60.9653 217.186 57.0747 219.201 53.7655 222.682C55.1823 217.682 54.6863 212.459 49.3138 208.775C35.4284 199.238 21.6792 238.393 21.6792 238.393L0.000366211 244.159L108.947 244.842Z" fill="#F4D4CE"/>
<mask id="mask1" mask-type="alpha" maskUnits="userSpaceOnUse" x="86" y="192" width="54" height="54">
<path fill-rule="evenodd" clip-rule="evenodd" d="M86.2693 192.446H139.978V245.17H86.2693V192.446Z" fill="white"/>
</mask>
<g mask="url(#mask1)">
<path fill-rule="evenodd" clip-rule="evenodd" d="M139.48 218.809C136.65 233.368 122.557 245.17 108.001 245.17C93.4451 245.17 83.9381 233.368 86.7676 218.809C89.5971 204.25 103.692 192.446 118.248 192.446C132.802 192.446 142.309 204.25 139.48 218.809Z" fill="#222B45"/>
</g>
<path fill-rule="evenodd" clip-rule="evenodd" d="M130.213 218.809C128.377 228.249 119.24 235.899 109.802 235.899C100.364 235.899 94.2012 228.249 96.0367 218.809C97.8702 209.37 107.007 201.717 116.447 201.717C125.883 201.717 132.046 209.37 130.213 218.809Z" fill="#435070"/>
<path fill-rule="evenodd" clip-rule="evenodd" d="M121.523 218.809C120.622 223.449 116.13 227.21 111.492 227.21C106.853 227.21 103.822 223.449 104.725 218.809C105.627 214.17 110.117 210.408 114.756 210.408C119.397 210.408 122.426 214.17 121.523 218.809Z" fill="white"/>
<path fill-rule="evenodd" clip-rule="evenodd" d="M244.538 195.633C244.538 195.633 243.78 157.639 232.783 149.942C227.74 146.412 224.134 139.75 221.707 133.567L213.042 108.741H205.35L213.074 158.363C213.962 162.772 213.316 167.353 211.245 171.346L196.4 199.956C194.322 203.959 197.174 206.234 192.706 205.63C182.335 204.231 171.562 201.535 161.11 196.89V168.699C161.11 159.668 168.43 152.347 177.459 152.347V137.438H161.11H146.865H134.902C99.7141 137.438 71.1891 165.968 71.1891 201.163V217.757H80.3261H161.11H229.872L244.538 195.633Z" fill="#FF7166"/>
<path fill-rule="evenodd" clip-rule="evenodd" d="M166.947 210.609L148.427 197.323C147.382 196.573 147.112 195.158 147.823 194.166C148.535 193.174 149.96 192.976 151.004 193.727L169.526 207.013C170.571 207.765 170.842 209.178 170.128 210.17C169.417 211.162 167.994 211.36 166.947 210.609Z" fill="#222B45"/>
<path fill-rule="evenodd" clip-rule="evenodd" d="M110.755 160.366C110.956 151.626 114.989 144.79 119.067 139.423C91.5397 146.466 71.1903 171.436 71.1903 201.162V217.758H80.3253H161.109H165.709C144.728 202.77 110.149 186.619 110.755 160.366Z" fill="#D83B29"/>
<path fill-rule="evenodd" clip-rule="evenodd" d="M229.873 217.757L244.539 195.633C244.539 195.633 243.78 157.638 232.783 149.943C227.74 146.412 224.134 139.749 221.707 133.567L213.042 108.741H208.117C208.491 120.183 210.873 132.215 215.42 139.357C217.428 142.514 220.988 147.607 223.76 155.644C224.155 156.791 227.291 166.11 227.334 177.494C227.393 192.266 222.224 205.928 217.656 217.757H229.873Z" fill="#FF4A32"/>
<mask id="mask2" mask-type="alpha" maskUnits="userSpaceOnUse" x="195" y="192" width="54" height="54">
<path fill-rule="evenodd" clip-rule="evenodd" d="M195.289 192.446H248.999V245.17H195.289V192.446Z" fill="white"/>
</mask>
<g mask="url(#mask2)">
<path fill-rule="evenodd" clip-rule="evenodd" d="M248.5 218.809C245.671 233.368 231.576 245.17 217.02 245.17C202.466 245.17 192.959 233.368 195.786 218.809C198.616 204.25 212.711 192.446 227.267 192.446C241.823 192.446 251.33 204.25 248.5 218.809Z" fill="#222B45"/>
</g>
<path fill-rule="evenodd" clip-rule="evenodd" d="M239.232 218.809C237.399 228.249 228.26 235.899 218.822 235.899C209.384 235.899 203.221 228.249 205.056 218.809C206.89 209.37 216.027 201.717 225.467 201.717C234.903 201.717 241.066 209.37 239.232 218.809Z" fill="#435070"/>
<path fill-rule="evenodd" clip-rule="evenodd" d="M230.544 218.809C229.641 223.449 225.151 227.21 220.51 227.21C215.872 227.21 212.843 223.449 213.745 218.809C214.646 214.17 219.138 210.408 223.777 210.408C228.415 210.408 231.444 214.17 230.544 218.809Z" fill="white"/>
<path fill-rule="evenodd" clip-rule="evenodd" d="M254.415 201.856C246.557 184.954 225.988 177.369 207.705 184.91C189.423 192.45 180.178 212.332 186.516 229.861L254.415 201.856Z" fill="#FF4A32"/>
<path fill-rule="evenodd" clip-rule="evenodd" d="M150.964 217.757H86.7043C85.129 217.757 83.8524 216.478 83.8524 214.904C83.8524 198.55 97.1057 185.291 113.457 185.291H124.212C140.561 185.291 153.816 198.55 153.816 214.904C153.816 216.478 152.54 217.757 150.964 217.757Z" fill="#FF4A32"/>
<path fill-rule="evenodd" clip-rule="evenodd" d="M132.98 150.068H177.423V139.968H132.98V150.068Z" fill="#222B45"/>
<path fill-rule="evenodd" clip-rule="evenodd" d="M213.496 112.338H202.377C201.749 112.338 201.241 111.519 201.241 110.508C201.241 109.498 201.749 108.676 202.377 108.676H213.496C214.124 108.676 214.632 109.498 214.632 110.508C214.632 111.519 214.124 112.338 213.496 112.338Z" fill="#222B45"/>
<path fill-rule="evenodd" clip-rule="evenodd" d="M240.852 121.467C240.852 128.906 237.882 134.936 234.219 134.936C230.556 134.936 213.116 128.906 213.116 121.467C213.116 114.03 230.556 107.998 234.219 107.998C237.882 107.998 240.852 114.03 240.852 121.467Z" fill="#FF4A32"/>
<path fill-rule="evenodd" clip-rule="evenodd" d="M240.599 125.152C238.558 126.095 235.751 127.51 231.836 127.506C226.366 127.498 222.219 124.723 219.257 122.739C217.227 121.381 215.525 119.884 214.094 118.392C213.478 119.378 213.115 120.409 213.115 121.468C213.115 128.907 230.557 134.935 234.22 134.935C237.253 134.935 239.808 130.798 240.599 125.152Z" fill="#D83B29"/>
<path fill-rule="evenodd" clip-rule="evenodd" d="M240.852 121.467C240.852 128.906 238.736 134.936 236.128 134.936C233.518 134.936 231.402 128.906 231.402 121.467C231.402 114.03 233.518 107.998 236.128 107.998C238.736 107.998 240.852 114.03 240.852 121.467Z" fill="#FFF6F8"/>
<path fill-rule="evenodd" clip-rule="evenodd" d="M228.47 115.955C228.47 117.124 226.407 118.074 223.862 118.074C221.317 118.074 219.254 117.124 219.254 115.955C219.254 114.784 221.317 113.835 223.862 113.835C226.407 113.835 228.47 114.784 228.47 115.955Z" fill="#FF6C32"/>
<path fill-rule="evenodd" clip-rule="evenodd" d="M222.82 119.883C222.82 120.554 221.635 121.101 220.175 121.101C218.714 121.101 217.531 120.554 217.531 119.883C217.531 119.212 218.714 118.665 220.175 118.665C221.635 118.665 222.82 119.212 222.82 119.883Z" fill="#FF6C32"/>
<path fill-rule="evenodd" clip-rule="evenodd" d="M225.887 112.128L222.388 96.0337L222.533 96.0032L226.031 112.095L225.887 112.128Z" fill="#29201D"/>
<path fill-rule="evenodd" clip-rule="evenodd" d="M223.481 96.3394C223.481 100.397 222.196 103.685 220.608 103.685C219.025 103.685 217.738 100.397 217.738 96.3394C217.738 92.2834 219.025 88.9939 220.608 88.9939C222.196 88.9939 223.481 92.2834 223.481 96.3394Z" fill="#FFF6F8"/>
<path fill-rule="evenodd" clip-rule="evenodd" d="M232.99 188.176C234.135 191.526 229.157 196.264 221.869 198.754C214.582 201.247 207.746 200.549 206.6 197.197C205.455 193.846 210.433 189.111 217.721 186.619C225.01 184.128 231.846 184.825 232.99 188.176Z" fill="#FF6C32"/>
<path fill-rule="evenodd" clip-rule="evenodd" d="M143.735 195.204C145.046 198.494 140.31 203.473 133.155 206.325C126.001 209.178 119.139 208.822 117.828 205.532C116.517 202.243 121.253 197.264 128.408 194.411C135.561 191.559 142.424 191.915 143.735 195.204Z" fill="#FF6C32"/>
<path fill-rule="evenodd" clip-rule="evenodd" d="M213.113 204.202C213.536 205.432 211.702 207.177 209.023 208.092C206.342 209.009 203.827 208.752 203.407 207.52C202.986 206.286 204.815 204.546 207.496 203.629C210.178 202.714 212.692 202.97 213.113 204.202Z" fill="#FF6C32"/>
<mask id="mask3" mask-type="alpha" maskUnits="userSpaceOnUse" x="0" y="0" width="313" height="246">
<path fill-rule="evenodd" clip-rule="evenodd" d="M0 245.17H312.409V0.377808H0V245.17Z" fill="white"/>
</mask>
<g mask="url(#mask3)">
<path fill-rule="evenodd" clip-rule="evenodd" d="M132.98 146.095H179.862V135.995H132.98V146.095Z" fill="#FF4A32"/>
<path fill-rule="evenodd" clip-rule="evenodd" d="M235.877 123.079C233.483 119.928 233.471 116.041 233.885 112.881C232.918 114.845 232.286 118.068 232.286 121.711C232.286 127.694 233.987 132.541 236.087 132.541C237.624 132.541 238.947 129.939 239.544 126.194C238.428 125.482 237.069 124.647 235.877 123.079Z" fill="#DFECF5"/>
<path fill-rule="evenodd" clip-rule="evenodd" d="M160.876 143.146C163.925 144.25 166.687 145.248 169.196 146.094H179.863V135.994H143.76C146.846 138.067 152.767 140.212 160.876 143.146Z" fill="#D83B29"/>
<path fill-rule="evenodd" clip-rule="evenodd" d="M149.373 100.503C149.373 100.503 178.164 120.872 193.505 132.931C207.318 143.787 188.064 141.732 148.969 135.543C141.194 134.313 140.1 116.993 143.958 110.129L149.373 100.503Z" fill="#76BF2F"/>
<path fill-rule="evenodd" clip-rule="evenodd" d="M185.033 138.137C185.033 138.137 175.764 139.54 171.209 153.918C166.653 168.294 158.915 186.655 158.915 186.655L163.702 190.103C163.702 190.103 182.143 166.978 189.497 154.613C189.497 154.613 195.43 151.187 197.508 143.921C199.382 137.368 196.764 135.638 191.751 132.086L185.033 138.137Z" fill="#76BF2F"/>
<path fill-rule="evenodd" clip-rule="evenodd" d="M156.863 189.48L159.731 184.749L165.002 188.429L162.994 191.182L160.103 194.636L156.863 189.48Z" fill="#FFBC82"/>
<path fill-rule="evenodd" clip-rule="evenodd" d="M157.311 188.853C157.311 188.853 152.969 191.642 151.891 194.493C151.891 194.493 158.689 199.689 163.533 204.243C168.375 208.8 173.373 207.834 170.639 203.94C167.905 200.045 162.994 191.183 162.994 191.183C162.994 191.183 160.03 194.511 157.311 188.853Z" fill="#76BF2F"/>
<path fill-rule="evenodd" clip-rule="evenodd" d="M163.048 195.079L162.949 194.969C164.207 193.831 165.315 194.471 165.325 194.479L165.25 194.606C165.207 194.581 164.223 194.016 163.048 195.079Z" fill="#29201D"/>
<path fill-rule="evenodd" clip-rule="evenodd" d="M164.338 196.781L164.238 196.671C165.496 195.534 166.602 196.173 166.614 196.179L166.539 196.307C166.496 196.283 165.511 195.719 164.338 196.781Z" fill="#29201D"/>
<path fill-rule="evenodd" clip-rule="evenodd" d="M161.926 193.449L161.826 193.339C163.084 192.201 164.192 192.841 164.202 192.847L164.127 192.975C164.085 192.949 163.101 192.386 161.926 193.449Z" fill="#29201D"/>
<path fill-rule="evenodd" clip-rule="evenodd" d="M148.173 104.903C146.858 106.556 150.58 113.897 157.329 115.867C161.504 117.085 166.992 116.296 167.389 114.446C167.468 114.076 167.332 113.643 167.043 113.175C164.224 111.132 161.557 109.211 159.193 107.511C154.467 105.147 149.257 103.542 148.173 104.903Z" fill="#9FBFD4"/>
<path fill-rule="evenodd" clip-rule="evenodd" d="M170.261 203.388C168.93 203.75 167.724 204.962 166.873 205.444C165.324 206.312 156.04 195.673 156.04 195.673C155.78 193.798 155.073 192.18 154.473 191.082C153.412 192.066 152.353 193.274 151.892 194.493C151.892 194.493 158.689 199.69 163.531 204.244C168.375 208.798 173.373 207.835 170.639 203.939C170.517 203.766 170.391 203.579 170.261 203.388Z" fill="#FFF6F8"/>
<path fill-rule="evenodd" clip-rule="evenodd" d="M181.818 78.6849C181.818 78.6849 184.459 75.4136 183.009 73.6997C182.16 72.6934 181.812 71.0303 182.292 69.8084C183.469 66.8137 184.814 63.7986 186.878 62.1538L188.461 50.7645C188.461 50.7645 181.79 56.4063 175.738 63.3249C173.822 65.5125 171.299 64.9493 170.153 64.9249C167.677 64.87 165.585 79.2033 178.082 79.2379C178.135 79.2399 178.188 79.2399 178.241 79.2358C180.761 79.2155 178.631 80.3723 181.818 78.6849Z" fill="#FFBC82"/>
<path fill-rule="evenodd" clip-rule="evenodd" d="M182.058 70.8345L182.101 70.6556C182.13 70.3608 182.188 70.0721 182.292 69.8078C182.737 68.6733 183.209 67.5348 183.733 66.4695L181.497 61.0635C181.497 61.0635 178.816 67.2705 182.058 70.8345Z" fill="#DE9066"/>
<path fill-rule="evenodd" clip-rule="evenodd" d="M181.748 82.7549C181.748 82.7549 181.118 91.2552 175.711 99.9955C173.027 104.346 171.523 106.888 168.962 114.085C168.962 114.085 167.62 115.772 164.714 115.854C158.88 115.998 152.721 111.625 148.533 107.784C147.761 107.05 147.07 106.359 146.44 105.708C145.647 104.877 144.996 104.145 144.488 103.535C144.163 103.128 143.899 102.783 143.716 102.537C143.472 102.212 143.37 102.029 143.411 101.988C148.208 97.9827 151.013 86.4551 151.013 86.4551C153.595 79.565 153.473 75.7428 162.722 67.7934C162.864 67.6694 163.149 67.4457 163.555 67.2038C163.86 67.0188 164.226 66.7951 164.632 66.5918C164.937 66.4089 165.303 66.2279 165.669 66.0653C166.015 65.9006 166.381 65.7379 166.767 65.5977C167.742 65.2114 168.799 64.9044 169.795 64.8231C169.978 64.8027 170.141 64.7844 170.304 64.7844H170.405C170.954 64.7844 171.483 64.8434 171.97 64.9857C171.97 64.9857 175.812 68.1187 181.158 71.207C182.927 72.7318 183.069 73.791 183.069 73.791C185.142 76.615 181.748 82.7549 181.748 82.7549Z" fill="#D83B29"/>
<path fill-rule="evenodd" clip-rule="evenodd" d="M143.716 102.538C143.899 102.782 144.163 103.127 144.488 103.534C144.163 103.127 143.899 102.802 143.716 102.538Z" fill="#D83B29"/>
<path fill-rule="evenodd" clip-rule="evenodd" d="M174.219 102.45C173.957 100.991 173.64 99.5533 173.319 98.3253C170.788 88.6112 164.843 79.6941 163.003 80.3955C161.375 81.0196 163.082 89.1459 163.905 92.3927C165.56 98.9129 168.605 105.278 171.044 108.69C172.105 106.208 173.073 104.39 174.219 102.45Z" fill="#B5261C"/>
<path fill-rule="evenodd" clip-rule="evenodd" d="M149.543 109.13C145.508 109.13 141.837 107.735 139.211 105.098L139.627 104.681C143.152 108.225 148.661 109.422 154.358 107.887C161.528 105.954 170.464 99.0231 174.049 85.3689C175.907 78.2937 175.379 72.5502 172.48 68.3011C168.419 62.3543 161.001 61.4292 160.928 61.4191L160.995 60.8356C161.07 60.8437 168.746 61.7952 172.962 67.9656C175.966 72.3612 176.523 78.2673 174.618 85.5193C170.97 99.4155 161.839 106.476 154.511 108.453C152.826 108.908 151.155 109.13 149.543 109.13Z" fill="#EDE92F"/>
<path fill-rule="evenodd" clip-rule="evenodd" d="M195.094 55.4463C195.094 55.4463 195.062 70.4911 188.415 69.4766C180.193 68.2222 178.113 56.2331 178.196 49.7028C178.239 46.5881 181.187 45.7464 184.213 45.0104C188.921 43.8658 195.231 46.8911 195.094 55.4463Z" fill="#FFBC82"/>
<path fill-rule="evenodd" clip-rule="evenodd" d="M193.945 47.1431C192.266 44.0691 187.737 41.9303 182.936 42.3084C178.135 42.6886 175.047 46.0981 174.651 50.5689C174.008 57.8331 179.667 59.2339 179.667 59.2339C179.667 59.2339 184.855 59.8072 187.788 50.9165C194.665 52.8886 195.624 50.2172 193.945 47.1431Z" fill="#85321A"/>
<path fill-rule="evenodd" clip-rule="evenodd" d="M194.824 56.043C194.824 56.043 195.361 59.4504 195.855 60.6886C196.349 61.9186 195.869 62.8396 193.647 62.7359" fill="#FFBC82"/>
<path fill-rule="evenodd" clip-rule="evenodd" d="M177.832 60.6264C178.747 62.0252 180.355 62.5944 181.426 61.895C182.495 61.1957 182.621 59.494 181.706 58.0932C180.794 56.6944 179.184 56.1272 178.115 56.8265C177.043 57.5259 176.917 59.2276 177.832 60.6264Z" fill="#FFBC82"/>
<path fill-rule="evenodd" clip-rule="evenodd" d="M163.685 69.6431C162.136 70.5621 161.955 74.8682 162.88 76.7976C165.404 82.0653 169.864 104.391 173.232 107.013C177.056 109.992 190.403 109.471 196.84 109.461L198.32 105.737C198.32 105.737 182.239 101.146 178.343 101.518C178.343 101.518 172.956 64.1416 163.685 69.6431Z" fill="#FFBC82"/>
<path fill-rule="evenodd" clip-rule="evenodd" d="M172.359 73.5981C174.518 79.8234 178.258 92.5892 178.258 92.5892C178.258 92.5892 171.284 95.3196 166.934 93.7765L159.954 76.357C158.679 73.1732 159.74 69.5299 162.527 67.5293C165.942 65.0774 170.981 69.6254 172.359 73.5981Z" fill="#D83B29"/>
<path fill-rule="evenodd" clip-rule="evenodd" d="M176.671 62.0021L181.631 71.3157L177.305 74.5605L171.552 64.8851L176.671 62.0021Z" fill="#D83B29"/>
<path fill-rule="evenodd" clip-rule="evenodd" d="M182.828 70.2685L181.456 71.2952L181.78 75.278L183.477 74.4546L182.828 70.2685Z" fill="#D83B29"/>
<path fill-rule="evenodd" clip-rule="evenodd" d="M182.293 69.808L182.829 70.2695L182.055 70.8469C182.055 70.8469 181.988 70.6863 182.293 69.808Z" fill="#29201D"/>
<path fill-rule="evenodd" clip-rule="evenodd" d="M181.534 75.7147L181.524 75.6009L181.203 71.923L177.327 74.7653L177.284 74.6982L171.342 65.0268L171.468 64.9495L177.367 74.5538L181.327 71.6506L181.66 75.4748L183.425 74.4786L183.496 74.6047L181.534 75.7147Z" fill="#29201D"/>
<path fill-rule="evenodd" clip-rule="evenodd" d="M202.888 105.339C202.888 105.339 210.951 106.773 211.016 107.47C211.084 108.167 211.24 114.836 211.24 114.836C211.24 114.836 209.276 115.137 207.673 109.308C207.673 109.308 200.03 111.552 194.909 109.454L197.17 105.569L202.888 105.339Z" fill="#FFBC82"/>
<path fill-rule="evenodd" clip-rule="evenodd" d="M196.274 46.8087C196.649 42.4843 187.528 39.3696 182.172 39.8901C176.815 40.4105 173.321 44.493 172.815 49.7912C171.99 58.4013 178.277 59.9749 178.277 59.9749C178.277 59.9749 180.779 59.2817 184.18 48.7157C191.813 50.948 195.925 50.8423 196.274 46.8087Z" fill="#76BF2F"/>
<path fill-rule="evenodd" clip-rule="evenodd" d="M177.898 44.7667C178.07 42.6461 179.678 41.1234 181.085 40.054C176.347 40.9871 173.287 44.8602 172.816 49.7904C171.991 58.4005 178.276 59.9742 178.276 59.9742C178.276 59.9742 180.105 59.4639 182.76 52.7181C181.317 50.0324 177.617 48.1863 177.898 44.7667Z" fill="#578723"/>
<path fill-rule="evenodd" clip-rule="evenodd" d="M180.828 53.4876C180.716 53.7844 180.382 53.9369 180.086 53.825L175.76 52.1925C175.463 52.0807 175.313 51.7493 175.425 51.4504C175.536 51.1536 175.87 51.0011 176.169 51.1149L180.492 52.7455C180.789 52.8573 180.939 53.1907 180.828 53.4876Z" fill="#F7EBD5"/>
<path fill-rule="evenodd" clip-rule="evenodd" d="M181.525 51.6372C181.414 51.9361 181.08 52.0866 180.781 51.9747L176.458 50.3442C176.159 50.2303 176.011 49.899 176.122 49.6001C176.234 49.3033 176.568 49.1528 176.864 49.2646L181.188 50.8952C181.487 51.007 181.637 51.3404 181.525 51.6372Z" fill="#F7EBD5"/>
<path fill-rule="evenodd" clip-rule="evenodd" d="M182.222 49.7878C182.11 50.0846 181.777 50.2371 181.48 50.1253L177.155 48.4927C176.858 48.3809 176.707 48.0495 176.819 47.7506C176.931 47.4538 177.264 47.3013 177.563 47.4152L181.887 49.0457C182.183 49.1575 182.334 49.491 182.222 49.7878Z" fill="#F7EBD5"/>
<path fill-rule="evenodd" clip-rule="evenodd" d="M176.564 149.523C173.332 155.663 173.596 157.959 171.584 162.126C169.957 165.501 167.701 168.307 165.303 170.604C167.335 165.28 169.49 159.321 171.218 153.913C173.738 145.943 177.702 141.981 180.731 140.006C172.641 139.173 161.888 137.589 148.96 135.534C141.195 134.316 140.097 116.994 143.959 110.12L146.439 105.708C147.069 106.361 147.76 107.05 148.533 107.784C146.378 115.062 145.992 121.568 149.041 125.797C150.342 127.625 152.354 128.581 156.359 130.494C170.73 137.345 182.581 132.588 184.186 136.632C185.121 139.012 181.178 140.801 176.564 149.523Z" fill="#578723"/>
<path fill-rule="evenodd" clip-rule="evenodd" d="M150.892 113.065L108.311 100.315L123.796 48.5771L166.377 61.3266L150.892 113.065Z" fill="#FFAD4B"/>
<path fill-rule="evenodd" clip-rule="evenodd" d="M151.959 86.4043C149.434 94.2134 141.061 98.4951 133.254 95.972C125.446 93.449 121.163 85.0727 123.688 77.2636C126.211 69.4545 134.585 65.1728 142.393 67.6958C150.201 70.2189 154.483 78.5952 151.959 86.4043Z" fill="#FFF6F8"/>
<path fill-rule="evenodd" clip-rule="evenodd" d="M142.134 88.8046L129.192 84.6185C128 84.2342 127.346 82.9575 127.732 81.764L144.988 87.3449C144.604 88.5363 143.325 89.1889 142.134 88.8046Z" fill="#FFAD4B"/>
<path fill-rule="evenodd" clip-rule="evenodd" d="M143.4 86.8609L129.403 82.3353C128.49 82.0405 127.986 81.0585 128.283 80.1436C128.578 79.2287 129.559 78.7286 130.474 79.0254L144.469 83.549C145.384 83.8458 145.886 84.8258 145.591 85.7386C145.295 86.6535 144.315 87.1577 143.4 86.8609Z" fill="#D83B29"/>
</g>
<mask id="mask4" mask-type="alpha" maskUnits="userSpaceOnUse" x="129" y="78" width="18" height="10">
<path fill-rule="evenodd" clip-rule="evenodd" d="M129.22 79.8109C128.928 80.7927 129.422 81.8444 130.322 82.1629L144.094 87.0197C144.994 87.3382 145.958 86.7971 146.248 85.8153C146.54 84.8357 146.044 83.784 145.146 83.4655L131.374 78.6087C131.2 78.5477 131.022 78.5193 130.848 78.5193C130.124 78.5193 129.454 79.0189 129.22 79.8109Z" fill="white"/>
</mask>
<g mask="url(#mask4)">
<path fill-rule="evenodd" clip-rule="evenodd" d="M132.443 83.985L131.237 84.3232L129.693 77.7886L130.899 77.4504L132.443 83.985Z" fill="#85321A"/>
</g>
<mask id="mask5" mask-type="alpha" maskUnits="userSpaceOnUse" x="129" y="78" width="18" height="10">
<path fill-rule="evenodd" clip-rule="evenodd" d="M129.22 79.8109C128.928 80.7927 129.422 81.8444 130.322 82.1629L144.094 87.0197C144.994 87.3382 145.958 86.7971 146.248 85.8153C146.54 84.8357 146.044 83.784 145.146 83.4655L131.374 78.6087C131.2 78.5477 131.022 78.5193 130.848 78.5193C130.124 78.5193 129.454 79.0189 129.22 79.8109Z" fill="white"/>
</mask>
<g mask="url(#mask5)">
<path fill-rule="evenodd" clip-rule="evenodd" d="M135.553 85.0802L134.347 85.4184L132.803 78.886L134.007 78.5457L135.553 85.0802Z" fill="#85321A"/>
</g>
<mask id="mask6" mask-type="alpha" maskUnits="userSpaceOnUse" x="129" y="78" width="18" height="10">
<path fill-rule="evenodd" clip-rule="evenodd" d="M129.22 79.8109C128.928 80.7927 129.422 81.8444 130.322 82.1629L144.094 87.0197C144.994 87.3382 145.958 86.7971 146.248 85.8153C146.54 84.8357 146.044 83.784 145.146 83.4655L131.374 78.6087C131.2 78.5477 131.022 78.5193 130.848 78.5193C130.124 78.5193 129.454 79.0189 129.22 79.8109Z" fill="white"/>
</mask>
<g mask="url(#mask6)">
<path fill-rule="evenodd" clip-rule="evenodd" d="M138.662 86.1775L137.456 86.5157L135.912 79.9811L137.116 79.6429L138.662 86.1775Z" fill="#85321A"/>
</g>
<mask id="mask7" mask-type="alpha" maskUnits="userSpaceOnUse" x="129" y="78" width="18" height="10">
<path fill-rule="evenodd" clip-rule="evenodd" d="M129.22 79.8109C128.928 80.7927 129.422 81.8444 130.322 82.1629L144.094 87.0197C144.994 87.3382 145.958 86.7971 146.248 85.8153C146.54 84.8357 146.044 83.784 145.146 83.4655L131.374 78.6087C131.2 78.5477 131.022 78.5193 130.848 78.5193C130.124 78.5193 129.454 79.0189 129.22 79.8109Z" fill="white"/>
</mask>
<g mask="url(#mask7)">
<path fill-rule="evenodd" clip-rule="evenodd" d="M141.772 87.2749L140.566 87.6131L139.022 81.0785L140.228 80.7404L141.772 87.2749Z" fill="#85321A"/>
</g>
<mask id="mask8" mask-type="alpha" maskUnits="userSpaceOnUse" x="129" y="78" width="18" height="10">
<path fill-rule="evenodd" clip-rule="evenodd" d="M129.22 79.8109C128.928 80.7927 129.422 81.8444 130.322 82.1629L144.094 87.0197C144.994 87.3382 145.958 86.7971 146.248 85.8153C146.54 84.8357 146.044 83.784 145.146 83.4655L131.374 78.6087C131.2 78.5477 131.022 78.5193 130.848 78.5193C130.124 78.5193 129.454 79.0189 129.22 79.8109Z" fill="white"/>
</mask>
<g mask="url(#mask8)">
<path fill-rule="evenodd" clip-rule="evenodd" d="M144.881 88.37L143.675 88.7082L142.131 82.1758L143.337 81.8354L144.881 88.37Z" fill="#85321A"/>
</g>
<path fill-rule="evenodd" clip-rule="evenodd" d="M146.742 84.9176C148.052 80.1898 145.198 75.1649 140.216 73.5641C135.232 71.9653 129.959 74.3787 128.234 78.973L146.742 84.9176Z" fill="#FFAD4B"/>
<path fill-rule="evenodd" clip-rule="evenodd" d="M144.869 81.2047C144.243 81.7667 142.855 81.2512 141.767 80.0567C140.681 78.8601 140.306 77.4351 140.933 76.8731C141.559 76.3112 142.947 76.8267 144.035 78.0233C145.121 79.2199 145.496 80.6449 144.869 81.2047Z" fill="#FFC94B"/>
<path fill-rule="evenodd" clip-rule="evenodd" d="M207.093 214.266C199.459 208.931 197.599 199.442 196.8 191.168C186.305 200.697 182.004 215.412 186.862 228.76L214.527 217.423C211.941 216.879 209.425 215.895 207.093 214.266Z" fill="#D83B29"/>
</svg>
