<svg width="322" height="239" viewBox="0 0 322 239" fill="none" xmlns="http://www.w3.org/2000/svg">
<mask id="mask0" mask-type="alpha" maskUnits="userSpaceOnUse" x="0" y="0" width="322" height="238">
<path fill-rule="evenodd" clip-rule="evenodd" d="M0.000244141 0.370911H321.517V237.19H0.000244141V0.370911Z" fill="white"/>
</mask>
<g mask="url(#mask0)">
<path fill-rule="evenodd" clip-rule="evenodd" d="M166.729 234.611C241.864 225.382 320.558 194.626 321.509 111.387C322.46 28.1477 240.018 -15.6046 175.239 5.73714C110.461 27.0808 107.218 78.1121 87.4494 80.8768C67.6809 83.6416 -10.2737 89.565 1.13427 152.233C12.5423 214.9 67.0868 246.85 166.729 234.611Z" fill="#FEF6F4"/>
</g>
<path fill-rule="evenodd" clip-rule="evenodd" d="M225.477 56.0594L225.295 56.9237L224.793 59.3251L224.678 59.872L221.964 59.3251L219.715 58.8586L216.44 58.199L214.249 57.7554L210.975 57.0938L208.829 56.6522L205.544 55.9906L203.431 55.5566L202.005 55.2736L201.172 55.1034L200.886 56.4916L200.121 60.1339L199.711 62.0803L198.948 65.7227L198.548 67.6576L197.783 71.3134L197.384 73.2464L196.62 76.8907L196.208 78.8237L195.445 82.4775L195.046 84.401L194.281 88.0663L193.869 90.0032L193.116 93.6455L192.706 95.5805L191.941 99.2343L191.542 101.158L190.778 104.823L190.367 106.76L188.974 113.429L185.118 112.643L186.168 107.613L187.092 103.194L187.537 101.055L188.255 97.6168L188.702 95.4772L189.421 92.028L189.875 89.8885L190.596 86.4411L191.04 84.3016L191.759 80.8504L192.204 78.7224L192.922 75.2731L193.379 73.1336V73.1221L194.097 69.6844L194.542 67.5448L195.261 64.0956L195.707 61.9675L196.426 58.5049L196.871 56.3768L197.304 54.3176L197.246 54.2947L197.543 52.8607L197.988 50.7097L198.034 50.4917L200.146 50.9238L201.526 51.1991L203.466 51.5968L206.776 52.2679L208.739 52.6676L212.058 53.3387L214.056 53.7364L217.352 54.4094L219.407 54.8281L222.692 55.4897L224.758 55.9103L225.477 56.0594Z" fill="#FFF6F8"/>
<path fill-rule="evenodd" clip-rule="evenodd" d="M202.005 55.2734L201.171 55.1032L200.888 56.4914C200.317 55.9464 199.768 55.3977 199.278 54.8509C198.64 54.1817 198.068 53.5086 197.543 52.8605L197.988 50.7095C198.513 51.415 199.084 52.1205 199.724 52.8471C200.409 53.6444 201.171 54.4532 202.005 55.2734Z" fill="#FF4A32"/>
<path fill-rule="evenodd" clip-rule="evenodd" d="M205.543 55.9904L203.431 55.5564C202.645 54.0326 202.029 52.5756 201.525 51.199L203.467 51.5967C204.013 52.9867 204.699 54.4647 205.543 55.9904Z" fill="#FF4A32"/>
<path fill-rule="evenodd" clip-rule="evenodd" d="M210.975 57.0938L208.828 56.6522C207.996 55.1264 207.323 53.6561 206.775 52.2679L208.738 52.6676C209.342 54.0786 210.072 55.5566 210.975 57.0938Z" fill="#FF4A32"/>
<path fill-rule="evenodd" clip-rule="evenodd" d="M216.44 58.1992L214.249 57.7556C213.36 56.2183 212.641 54.7499 212.059 53.3389L214.056 53.7366C214.706 55.1706 215.482 56.6619 216.44 58.1992Z" fill="#FF4A32"/>
<path fill-rule="evenodd" clip-rule="evenodd" d="M221.963 59.3252L219.714 58.8586C218.768 57.3214 217.991 55.832 217.353 54.4094L219.408 54.8282C220.103 56.2736 220.947 57.7765 221.963 59.3252Z" fill="#FF4A32"/>
<path fill-rule="evenodd" clip-rule="evenodd" d="M225.294 56.9239L224.792 59.3253C223.972 58.0041 223.274 56.7288 222.693 55.4899L224.758 55.9105C224.93 56.2508 225.112 56.5816 225.294 56.9239Z" fill="#FF4A32"/>
<path fill-rule="evenodd" clip-rule="evenodd" d="M200.122 60.1337L199.712 62.0821C199.118 61.5008 198.56 60.931 198.047 60.3613C197.452 59.736 196.916 59.1223 196.425 58.5047L196.87 56.3766C197.372 57.0267 197.909 57.6998 198.491 58.369C198.993 58.9502 199.528 59.541 200.122 60.1337Z" fill="#FF4A32"/>
<path fill-rule="evenodd" clip-rule="evenodd" d="M198.948 65.7221L198.549 67.659C197.932 67.0778 197.361 66.485 196.814 65.8942C196.266 65.29 195.741 64.6878 195.262 64.095L195.707 61.967C196.186 62.5922 196.699 63.2289 197.259 63.879C197.784 64.4927 198.342 65.1084 198.948 65.7221Z" fill="#FF4A32"/>
<path fill-rule="evenodd" clip-rule="evenodd" d="M197.784 71.3125L197.385 73.2474C196.745 72.6318 196.141 72.018 195.581 71.4024C195.056 70.823 194.554 70.2532 194.098 69.6835L194.542 67.5439C194.999 68.1596 195.489 68.7734 196.026 69.4005C196.574 70.0372 197.155 70.6739 197.784 71.3125Z" fill="#FF4A32"/>
<path fill-rule="evenodd" clip-rule="evenodd" d="M196.619 76.8898L196.209 78.8247C195.546 78.1995 194.931 77.5494 194.348 76.9242C193.846 76.3659 193.367 75.8191 192.922 75.2722L193.38 73.1327C193.813 73.7139 194.293 74.3047 194.806 74.9089C195.364 75.5705 195.958 76.2282 196.619 76.8898Z" fill="#FF4A32"/>
<path fill-rule="evenodd" clip-rule="evenodd" d="M195.444 82.4783L195.045 84.4017C194.361 83.7536 193.721 83.092 193.128 82.4343C192.638 81.897 192.18 81.375 191.758 80.8492L192.205 78.7212C192.626 79.2795 193.082 79.8493 193.573 80.419C194.142 81.1016 194.771 81.7842 195.444 82.4783Z" fill="#FF4A32"/>
<path fill-rule="evenodd" clip-rule="evenodd" d="M194.281 88.0667L193.87 90.0035C193.163 89.319 192.5 88.6365 191.896 87.952C191.429 87.4415 190.994 86.9405 190.595 86.4396L191.04 84.3C191.44 84.8354 191.873 85.3822 192.341 85.9272C192.924 86.6327 193.573 87.3497 194.281 88.0667Z" fill="#FF4A32"/>
<path fill-rule="evenodd" clip-rule="evenodd" d="M193.116 93.646L192.706 95.5809C191.976 94.8754 191.29 94.168 190.663 93.4739C190.23 92.9844 189.818 92.5064 189.419 92.0284L189.875 89.8889C190.253 90.4013 190.663 90.9137 191.119 91.4376C191.725 92.1661 192.386 92.9041 193.116 93.646Z" fill="#FF4A32"/>
<path fill-rule="evenodd" clip-rule="evenodd" d="M191.941 99.2344L191.542 101.158C190.777 100.441 190.082 99.7009 189.43 98.9839C189.02 98.5288 188.631 98.0738 188.255 97.6168L188.702 95.4773C189.077 95.9668 189.465 96.4562 189.888 96.9591C190.503 97.7086 191.188 98.4715 191.941 99.2344Z" fill="#FF4A32"/>
<path fill-rule="evenodd" clip-rule="evenodd" d="M190.778 104.823L190.367 106.76C189.591 105.995 188.872 105.245 188.198 104.505C187.811 104.062 187.444 103.628 187.092 103.194L187.536 101.054C187.88 101.521 188.255 101.999 188.656 102.477C189.294 103.253 190.001 104.039 190.778 104.823Z" fill="#FF4A32"/>
<path fill-rule="evenodd" clip-rule="evenodd" d="M200.146 50.9246L199.724 52.8481L199.277 54.8519L198.492 58.3699L198.045 60.3622L197.259 63.8784L196.814 65.8937L196.027 69.4003L195.582 71.4021L194.806 74.9087L194.35 76.924L193.573 80.4191L193.127 82.4325L192.341 85.9276L191.896 87.9524L191.12 91.4361L190.664 93.4743L189.888 96.9579L189.431 98.9846L188.655 102.478L188.199 104.505L187.446 107.896L186.167 107.612L187.091 103.195L187.536 101.055L188.255 97.6176L188.701 95.478L189.42 92.0288L189.876 89.8893L190.595 86.44L191.04 84.3005L191.758 80.8493L192.203 78.7213L192.922 75.272L193.38 73.1325V73.121L194.099 69.6851L194.543 67.5437L195.262 64.0964L195.707 61.9664L196.425 58.5057L196.87 56.3776L197.305 54.3165L197.248 54.2955L197.545 52.8615L197.989 50.7085L198.033 50.4925L200.146 50.9246Z" fill="#9FBFD4"/>
<path fill-rule="evenodd" clip-rule="evenodd" d="M217.177 203.606H170.349L160.725 101.567H226.8L217.177 203.606Z" fill="white"/>
<path fill-rule="evenodd" clip-rule="evenodd" d="M222.749 144.517C220.531 143.122 218.133 142.185 215.573 141.93C206.666 141.047 203.45 149.156 195.687 147.422C185.362 145.114 186.589 129.772 173.556 117.39C169.996 114.008 165.762 111.224 161.438 109.12L165.847 155.871C173.462 161.639 183.929 167.249 194.403 164.857C205.591 162.305 207.502 152.747 216.855 152.911C218.616 152.94 220.284 153.313 221.861 153.928L222.749 144.517Z" fill="#FF4A32"/>
<path fill-rule="evenodd" clip-rule="evenodd" d="M161.071 105.226H226.454L226.799 101.567H160.726L161.071 105.226Z" fill="#DEDEDE"/>
<mask id="mask1" mask-type="alpha" maskUnits="userSpaceOnUse" x="0" y="0" width="322" height="239">
<path fill-rule="evenodd" clip-rule="evenodd" d="M0 239H321.517V0.370911H0V239Z" fill="white"/>
</mask>
<g mask="url(#mask1)">
<path fill-rule="evenodd" clip-rule="evenodd" d="M158.16 103.181H228.402V95.5388H158.16V103.181Z" fill="white"/>
<path fill-rule="evenodd" clip-rule="evenodd" d="M174.997 96.883H211.564V91.233H174.997V96.883Z" fill="white"/>
<path fill-rule="evenodd" clip-rule="evenodd" d="M193.443 196.987C176.956 178.072 178.228 155.038 180.496 113.999C180.758 109.217 181.456 103.443 185.594 100.194C188.699 97.7564 193.173 97.1885 193.038 96.0777C192.923 95.1159 189.577 95.5978 187.725 93.5462C187.139 92.9018 186.802 92.1045 186.629 91.2327H174.999V95.5385H158.159V103.181H160.879L170.349 203.607H200.266C198.01 201.756 195.71 199.586 193.443 196.987Z" fill="#9FBFD4"/>
<path fill-rule="evenodd" clip-rule="evenodd" d="M126.361 156.303L139.995 103.981L146.373 105.635L148.708 106.941L135.075 159.261L128.696 157.609L126.361 156.303Z" fill="#E6C82E"/>
<path fill-rule="evenodd" clip-rule="evenodd" d="M126.361 156.303L132.74 157.955L146.373 105.635L139.995 103.981L126.361 156.303Z" fill="#D4942A"/>
<path fill-rule="evenodd" clip-rule="evenodd" d="M146.887 112.618C146.049 117.345 144.227 122.012 143.803 121.888C143.751 121.872 143.665 121.769 143.738 120.719C144.091 115.576 146.743 109.035 147.234 109.251C147.466 109.355 147.18 110.972 146.887 112.618Z" fill="#EDE92F"/>
<path fill-rule="evenodd" clip-rule="evenodd" d="M143.341 124.169C143.51 125.326 142.645 127.626 142.178 128.113C142.12 128.173 142.009 128.266 141.852 128.142C141.085 127.532 142.4 124.196 142.958 123.635C143.222 123.368 143.282 123.766 143.341 124.169Z" fill="#EDE92F"/>
<path fill-rule="evenodd" clip-rule="evenodd" d="M132.285 144.661L126.02 90.9646L132.567 90.2036L135.218 90.5784L141.482 144.275L134.936 145.034L132.285 144.661Z" fill="#E6C82E"/>
<path fill-rule="evenodd" clip-rule="evenodd" d="M132.285 144.661L138.833 143.902L132.567 90.2036L126.02 90.9646L132.285 144.661Z" fill="#D4942A"/>
<path fill-rule="evenodd" clip-rule="evenodd" d="M135.579 96.5289C136.51 101.238 136.505 106.246 136.064 106.284C136.01 106.288 135.895 106.221 135.581 105.219C134.044 100.297 134.143 93.2402 134.68 93.2651C134.935 93.2785 135.255 94.8884 135.579 96.5289Z" fill="#EDE92F"/>
<path fill-rule="evenodd" clip-rule="evenodd" d="M136.462 108.576C137.04 109.593 137.065 112.048 136.807 112.673C136.774 112.75 136.705 112.876 136.513 112.817C135.578 112.524 135.595 108.939 135.911 108.218C136.063 107.872 136.26 108.22 136.462 108.576Z" fill="#EDE92F"/>
<path fill-rule="evenodd" clip-rule="evenodd" d="M101.03 140.748L92.0506 87.4354L85.5512 88.5253L83.1094 89.6208L92.089 142.933L98.5903 141.843L101.03 140.748Z" fill="#D4942A"/>
<path fill-rule="evenodd" clip-rule="evenodd" d="M101.03 140.748L94.5307 141.838L85.5511 88.5253L92.0506 87.4354L101.03 140.748Z" fill="#E6C82E"/>
<path fill-rule="evenodd" clip-rule="evenodd" d="M88.4998 92.7515C88.5419 97.5908 90.633 102.29 91.5511 102.126C91.6623 102.107 91.875 101.992 92.1012 100.908C93.2109 95.5928 90.0772 89.0155 88.9885 89.2812C88.471 89.4074 88.4863 91.0632 88.4998 92.7515Z" fill="#EDE92F"/>
<path fill-rule="evenodd" clip-rule="evenodd" d="M91.6884 104.459C90.9255 105.677 91.8896 107.994 92.6812 108.461C92.777 108.518 92.9706 108.606 93.3386 108.464C95.1384 107.767 93.6165 104.411 92.6678 103.872C92.2154 103.619 91.9548 104.034 91.6884 104.459Z" fill="#EDE92F"/>
<path fill-rule="evenodd" clip-rule="evenodd" d="M103.216 130.037L100.159 76.0636L106.739 75.6926L109.363 76.2223L112.42 130.196L105.84 130.567L103.216 130.037Z" fill="#E6C82E"/>
<path fill-rule="evenodd" clip-rule="evenodd" d="M103.216 130.037L109.796 129.666L106.739 75.6926L100.159 76.0636L103.216 130.037Z" fill="#D4942A"/>
<path fill-rule="evenodd" clip-rule="evenodd" d="M109.37 82.1852C110.02 86.9403 109.715 91.9402 109.272 91.9497C109.218 91.9517 109.107 91.879 108.854 90.8599C107.612 85.8543 108.134 78.8162 108.666 78.8755C108.921 78.9003 109.144 80.5294 109.37 82.1852Z" fill="#EDE92F"/>
<path fill-rule="evenodd" clip-rule="evenodd" d="M109.533 94.2639C110.05 95.3155 109.929 97.7667 109.632 98.3728C109.598 98.4474 109.521 98.5716 109.333 98.5009C108.415 98.1529 108.647 94.5756 109.005 93.8719C109.176 93.5373 109.352 93.8987 109.533 94.2639Z" fill="#EDE92F"/>
<path fill-rule="evenodd" clip-rule="evenodd" d="M125.56 134.106L115.945 80.9046L122.431 79.7383L125.1 79.9467L134.714 133.148L128.228 134.314L125.56 134.106Z" fill="#E6C82E"/>
<path fill-rule="evenodd" clip-rule="evenodd" d="M125.56 134.106L132.046 132.942L122.431 79.7383L115.945 80.9046L125.56 134.106Z" fill="#D4942A"/>
<path fill-rule="evenodd" clip-rule="evenodd" d="M125.833 85.8635C127.057 90.5058 127.364 95.5038 126.927 95.5669C126.873 95.5745 126.755 95.5191 126.379 94.5344C124.537 89.72 124.196 82.6705 124.733 82.6609C124.987 82.6571 125.405 84.2459 125.833 85.8635Z" fill="#EDE92F"/>
<path fill-rule="evenodd" clip-rule="evenodd" d="M127.468 97.8321C128.108 98.8129 128.288 101.262 128.068 101.899C128.041 101.977 127.981 102.109 127.788 102.061C126.833 101.828 126.626 98.2508 126.897 97.507C127.025 97.1552 127.244 97.4898 127.468 97.8321Z" fill="#EDE92F"/>
<path fill-rule="evenodd" clip-rule="evenodd" d="M86.1283 161.938L83.0712 107.965L89.6511 107.594L92.275 108.123L95.3321 162.097L88.7522 162.468L86.1283 161.938Z" fill="#E6C82E"/>
<path fill-rule="evenodd" clip-rule="evenodd" d="M86.1283 161.938L92.7082 161.567L89.6511 107.594L83.0712 107.965L86.1283 161.938Z" fill="#D4942A"/>
<path fill-rule="evenodd" clip-rule="evenodd" d="M92.2817 114.086C92.9315 118.839 92.6267 123.841 92.1859 123.851C92.1322 123.851 92.0191 123.78 91.7661 122.759C90.5241 117.755 91.0455 110.717 91.5802 110.774C91.8332 110.801 92.0556 112.428 92.2817 114.086Z" fill="#EDE92F"/>
<path fill-rule="evenodd" clip-rule="evenodd" d="M92.4455 126.163C92.963 127.215 92.8422 129.668 92.5451 130.274C92.5087 130.346 92.434 130.471 92.2461 130.4C91.3281 130.054 91.5581 126.477 91.9184 125.773C92.0871 125.438 92.2653 125.798 92.4455 126.163Z" fill="#EDE92F"/>
<path fill-rule="evenodd" clip-rule="evenodd" d="M133.323 164.405L129.747 110.464L123.171 110.898L120.631 111.743L124.208 165.686L130.784 165.25L133.323 164.405Z" fill="#D4942A"/>
<path fill-rule="evenodd" clip-rule="evenodd" d="M133.323 164.405L126.747 164.841L123.171 110.898L129.747 110.464L133.323 164.405Z" fill="#E6C82E"/>
<path fill-rule="evenodd" clip-rule="evenodd" d="M125.679 115.397C125.235 120.217 126.843 125.102 127.774 125.03C127.887 125.02 128.11 124.928 128.441 123.875C130.08 118.697 127.623 111.839 126.515 111.994C125.988 112.068 125.835 113.716 125.679 115.397Z" fill="#EDE92F"/>
<path fill-rule="evenodd" clip-rule="evenodd" d="M127.675 127.365C126.794 128.499 127.52 130.903 128.26 131.446C128.352 131.513 128.536 131.62 128.914 131.514C130.775 131 129.598 127.507 128.709 126.88C128.285 126.582 127.984 126.97 127.675 127.365Z" fill="#EDE92F"/>
<path fill-rule="evenodd" clip-rule="evenodd" d="M117.984 133.858L118.496 79.8015L111.905 79.7384L109.31 80.3904L108.798 134.448L115.389 134.511L117.984 133.858Z" fill="#D4942A"/>
<path fill-rule="evenodd" clip-rule="evenodd" d="M117.984 133.858L111.395 133.796L111.905 79.7384L118.496 79.8015L117.984 133.858Z" fill="#E6C82E"/>
<path fill-rule="evenodd" clip-rule="evenodd" d="M114.067 84.4146C113.26 89.1869 114.494 94.1792 115.426 94.1753C115.541 94.1753 115.769 94.1008 116.181 93.074C118.205 88.0359 116.275 81.0112 115.156 81.082C114.625 81.1164 114.349 82.7511 114.067 84.4146Z" fill="#EDE92F"/>
<path fill-rule="evenodd" clip-rule="evenodd" d="M115.153 96.4971C114.188 97.564 114.731 100.013 115.429 100.61C115.513 100.682 115.689 100.805 116.074 100.73C117.968 100.357 117.06 96.7858 116.218 96.0917C115.82 95.761 115.49 96.1262 115.153 96.4971Z" fill="#EDE92F"/>
<path fill-rule="evenodd" clip-rule="evenodd" d="M120.263 145.343L128.655 91.9349L122.144 90.9177L119.479 91.1873L111.088 144.593L117.599 145.612L120.263 145.343Z" fill="#D4942A"/>
<path fill-rule="evenodd" clip-rule="evenodd" d="M120.263 145.343L113.752 144.326L122.144 90.9177L128.655 91.9349L120.263 145.343Z" fill="#E6C82E"/>
<path fill-rule="evenodd" clip-rule="evenodd" d="M123.6 95.8566C122.105 100.463 122.599 105.581 123.521 105.713C123.634 105.73 123.87 105.69 124.43 104.732C127.167 100.04 126.279 92.8107 125.164 92.719C124.633 92.6769 124.121 94.2524 123.6 95.8566Z" fill="#EDE92F"/>
<path fill-rule="evenodd" clip-rule="evenodd" d="M122.912 107.969C121.8 108.885 121.982 111.386 122.584 112.078C122.657 112.164 122.812 112.311 123.207 112.29C125.135 112.197 124.756 108.531 124.025 107.722C123.679 107.338 123.299 107.652 122.912 107.969Z" fill="#EDE92F"/>
<path fill-rule="evenodd" clip-rule="evenodd" d="M104.511 138.684L92.1405 86.0528L98.5575 84.5519L101.233 84.6226L113.603 137.254L107.186 138.755L104.511 138.684Z" fill="#E6C82E"/>
<path fill-rule="evenodd" clip-rule="evenodd" d="M104.511 138.684L110.928 137.185L98.5575 84.5519L92.1405 86.0528L104.511 138.684Z" fill="#D4942A"/>
<path fill-rule="evenodd" clip-rule="evenodd" d="M102.274 90.4923C103.738 95.0639 104.306 100.041 103.87 100.127C103.819 100.138 103.696 100.087 103.271 99.125C101.179 94.41 100.472 87.3891 101.007 87.3528C101.262 87.3356 101.762 88.8996 102.274 90.4923Z" fill="#EDE92F"/>
<path fill-rule="evenodd" clip-rule="evenodd" d="M104.529 102.36C105.22 103.307 105.527 105.744 105.341 106.391C105.318 106.469 105.265 106.605 105.067 106.567C104.103 106.383 103.71 102.821 103.942 102.068C104.051 101.706 104.289 102.031 104.529 102.36Z" fill="#EDE92F"/>
<path fill-rule="evenodd" clip-rule="evenodd" d="M100.701 151.577L109.092 98.1694L102.579 97.1503L99.9168 97.4199L91.5256 150.828L98.0366 151.847L100.701 151.577Z" fill="#D4942A"/>
<path fill-rule="evenodd" clip-rule="evenodd" d="M100.701 151.577L94.1898 150.56L102.579 97.1503L109.092 98.1694L100.701 151.577Z" fill="#E6C82E"/>
<path fill-rule="evenodd" clip-rule="evenodd" d="M104.037 102.091C102.542 106.695 103.035 111.814 103.959 111.948C104.072 111.963 104.307 111.923 104.865 110.967C107.604 106.275 106.717 99.0435 105.601 98.9518C105.07 98.9097 104.559 100.485 104.037 102.091Z" fill="#EDE92F"/>
<path fill-rule="evenodd" clip-rule="evenodd" d="M103.348 114.204C102.239 115.117 102.419 117.62 103.021 118.312C103.094 118.397 103.251 118.544 103.644 118.525C105.572 118.431 105.192 114.766 104.464 113.957C104.115 113.573 103.736 113.884 103.348 114.204Z" fill="#EDE92F"/>
<path fill-rule="evenodd" clip-rule="evenodd" d="M137.486 210.885H88.0917L80.1088 132.533H145.469L137.486 210.885Z" fill="#FF4A32"/>
<path fill-rule="evenodd" clip-rule="evenodd" d="M137.525 210.498C122.763 202.051 106.452 189.583 99.8822 169.245C95.4796 155.62 96.7676 142.544 97.3962 132.534H80.1079L88.0908 210.884H137.485L137.525 210.498Z" fill="#E8312E"/>
<path fill-rule="evenodd" clip-rule="evenodd" d="M126.245 174.176C126.245 185.472 120.179 194.63 112.697 194.63C105.216 194.63 99.1495 185.472 99.1495 174.176C99.1495 162.878 105.216 153.721 112.697 153.721C120.179 153.721 126.245 162.878 126.245 174.176Z" fill="#FFF6F8"/>
<path fill-rule="evenodd" clip-rule="evenodd" d="M112.698 194.631C113.656 194.631 114.591 194.478 115.494 194.191C108.811 187.501 103.145 179.345 99.881 169.245C99.8081 169.018 99.7411 168.788 99.6701 168.563C99.3328 170.347 99.1488 172.228 99.1488 174.176C99.1488 185.472 105.215 194.631 112.698 194.631Z" fill="#FFDCCB"/>
<path fill-rule="evenodd" clip-rule="evenodd" d="M195.795 239.001H110.8C102.976 239.001 96.6342 232.672 96.6342 224.867H209.961C209.961 232.672 203.619 239.001 195.795 239.001Z" fill="#FFAD4B"/>
<path fill-rule="evenodd" clip-rule="evenodd" d="M209.96 224.868H96.6353V230.706C97.975 231.021 100.137 229.096 103.717 228.813C110.253 228.294 112.139 234 118.543 233.742C123.409 233.545 123.346 230.205 128.095 230.126C134.309 230.025 136.188 235.713 141.932 235.055C145.848 234.61 145.652 231.885 149.508 231.442C155.77 230.721 158.684 237.627 164.004 236.371C167.27 235.6 166.895 232.826 170.264 232.097C175.353 230.998 178.239 236.893 182.782 235.713C186.372 234.782 185.893 230.753 189.369 229.797C194.657 228.346 200.151 236.451 202.878 234.726C204.62 233.627 203.018 229.914 205.184 228.484C206.598 227.549 208.503 228.327 209.96 228.66V224.868Z" fill="#DE7441"/>
<path fill-rule="evenodd" clip-rule="evenodd" d="M96.6345 225.806V232.471C96.6345 236.077 99.5651 239 103.18 239H141.54C139.677 238.341 138.201 237.385 137.814 235.88C137.069 232.989 141.076 231.043 140.614 228.976C140.166 226.972 135.671 225.603 129.352 224.869H103.858C101.35 225.111 98.9154 225.423 96.6345 225.806Z" fill="#DE7441"/>
<path fill-rule="evenodd" clip-rule="evenodd" d="M97.1286 220.925C96.8507 221.535 94.4912 226.726 96.1396 228.154C97.4218 229.267 99.6624 226.835 103.718 226.512C110.252 225.993 112.14 231.701 118.542 231.441C123.408 231.244 123.345 227.904 128.096 227.825C134.31 227.726 136.188 233.412 141.931 232.754C145.848 232.309 145.653 229.584 149.509 229.141C155.771 228.42 158.684 235.326 164.005 234.07C167.271 233.301 166.895 230.525 170.263 229.798C175.354 228.697 178.24 234.592 182.781 233.412C186.372 232.481 185.893 228.454 189.37 227.498C194.658 226.047 200.149 234.15 202.877 232.427C204.621 231.326 203.019 227.613 205.183 226.183C207.358 224.749 210.693 227.357 211.772 226.183C212.918 224.936 210.254 220.795 210.126 220.596C201.618 207.571 105.387 202.768 97.1286 220.925Z" fill="#7FCF33"/>
<path fill-rule="evenodd" clip-rule="evenodd" d="M97.1286 220.925C96.9695 221.277 96.1243 223.139 95.7448 224.934C95.8368 225.166 95.9613 225.37 96.1396 225.525C97.4218 226.636 99.6624 224.206 103.718 223.883C110.252 223.364 112.14 229.072 118.542 228.812C123.41 228.615 123.345 225.275 128.096 225.196C134.31 225.097 136.188 230.783 141.931 230.125C145.848 229.68 145.653 226.955 149.509 226.512C155.771 225.791 158.684 232.695 164.005 231.441C167.271 230.672 166.895 227.896 170.263 227.169C175.354 226.068 178.24 231.963 182.781 230.783C186.372 229.852 185.893 225.825 189.37 224.869C194.658 223.418 200.149 231.521 202.877 229.798C204.621 228.697 203.019 224.984 205.183 223.554C207.302 222.156 210.522 224.592 211.682 223.624C211.142 222.177 210.2 220.712 210.126 220.596C201.618 207.571 105.388 202.768 97.1286 220.925Z" fill="#76BF2F"/>
<path fill-rule="evenodd" clip-rule="evenodd" d="M209.964 220.385C207.484 216.993 199.045 214.171 187.796 212.186C162.869 211.045 125.378 212.314 104.658 214.882C100.879 216.517 98.2242 218.517 97.1278 220.924C97.0358 221.129 96.7138 221.846 96.3842 222.756C97.0013 222.941 97.5917 223.104 98.1168 223.224C102.531 224.259 104.783 223.322 111.788 223.718C115.516 223.93 116.316 224.276 120.189 224.704C127.827 225.551 130.857 224.886 139.461 224.869C147.985 224.853 146.601 225.503 160.874 226.018C168.286 226.287 172.8 226.44 179.157 226.182C184.587 225.964 186.473 225.645 188.323 225.312C188.629 225.131 188.971 224.978 189.369 224.869C190.155 224.653 190.945 224.651 191.729 224.794C193.047 224.645 194.769 224.5 197.277 224.375C200.628 224.209 203.959 224.146 207.489 222.075C208.164 221.681 209.082 221.073 209.964 220.385Z" fill="#549E27"/>
<path fill-rule="evenodd" clip-rule="evenodd" d="M139.655 232.038C141.037 232.696 142.417 232.138 142.911 231.937C144.444 231.317 145.428 230.031 145.316 229.889C145.223 229.769 144.479 230.568 143.162 230.939C140.638 231.646 138.445 230.09 138.202 230.539C138.048 230.82 138.815 231.637 139.655 232.038Z" fill="#A6F03A"/>
<path fill-rule="evenodd" clip-rule="evenodd" d="M160.945 233.087C162.327 233.745 163.707 233.187 164.201 232.986C165.735 232.367 166.718 231.08 166.607 230.938C166.513 230.818 165.767 231.617 164.452 231.988C161.928 232.696 159.735 231.139 159.492 231.588C159.339 231.87 160.103 232.686 160.945 233.087Z" fill="#A6F03A"/>
<path fill-rule="evenodd" clip-rule="evenodd" d="M179.58 232.387C180.962 233.047 182.342 232.487 182.836 232.286C184.369 231.666 185.353 230.382 185.242 230.238C185.148 230.12 184.402 230.919 183.087 231.288C180.563 231.995 178.37 230.439 178.127 230.888C177.974 231.169 178.738 231.986 179.58 232.387Z" fill="#A6F03A"/>
<path fill-rule="evenodd" clip-rule="evenodd" d="M201.293 231.42C199.785 231.539 198.658 230.588 198.255 230.25C197.002 229.195 196.476 227.736 196.626 227.648C196.75 227.575 197.205 228.525 198.33 229.288C200.488 230.747 203.039 230.11 203.129 230.585C203.187 230.885 202.211 231.347 201.293 231.42Z" fill="#A6F03A"/>
<path fill-rule="evenodd" clip-rule="evenodd" d="M210.541 225.486C209.537 225.79 208.63 225.312 208.306 225.14C207.302 224.61 206.727 223.7 206.817 223.618C206.89 223.551 207.338 224.129 208.214 224.479C209.895 225.15 211.532 224.341 211.662 224.651C211.745 224.844 211.153 225.301 210.541 225.486Z" fill="#A6F03A"/>
<path fill-rule="evenodd" clip-rule="evenodd" d="M164.426 214.804C164.426 212.619 150.331 210.85 132.947 210.85C115.559 210.85 101.466 212.619 101.466 214.804V218.335C101.466 220.517 115.559 222.289 132.947 222.289C150.331 222.289 164.426 220.517 164.426 218.335V214.804Z" fill="#FF4A32"/>
<path fill-rule="evenodd" clip-rule="evenodd" d="M159.085 219.386C156.854 220.377 153.517 219.797 153.358 219.342C153.111 218.639 159.988 217.201 160.695 217.876C161.031 218.195 159.973 218.992 159.085 219.386Z" fill="#FFF6F8"/>
<path fill-rule="evenodd" clip-rule="evenodd" d="M164.426 214.804C164.426 216.987 150.331 218.758 132.947 218.758C115.559 218.758 101.466 216.987 101.466 214.804C101.466 212.619 115.559 210.85 132.947 210.85C150.331 210.85 164.426 212.619 164.426 214.804Z" fill="#E0412C"/>
<path fill-rule="evenodd" clip-rule="evenodd" d="M150.266 220.538C150.49 220.976 151.233 221.108 151.72 220.733C152.029 220.496 152.334 219.98 152.178 219.46C152.033 218.982 151.571 218.739 151.207 218.773C150.503 218.842 149.978 219.976 150.266 220.538Z" fill="#FFF6F8"/>
<path fill-rule="evenodd" clip-rule="evenodd" d="M164.156 214.292C164.185 214.319 164.215 214.346 164.238 214.375C164.215 214.346 164.185 214.319 164.156 214.292Z" fill="#BF3930"/>
<path fill-rule="evenodd" clip-rule="evenodd" d="M163.538 213.872C163.592 213.901 163.645 213.928 163.695 213.956C163.645 213.928 163.592 213.901 163.538 213.872Z" fill="#BF3930"/>
<path fill-rule="evenodd" clip-rule="evenodd" d="M163.889 214.08C163.931 214.108 163.973 214.135 164.01 214.164C163.973 214.135 163.931 214.108 163.889 214.08Z" fill="#BF3930"/>
<path fill-rule="evenodd" clip-rule="evenodd" d="M163.107 213.671C163.172 213.697 163.231 213.724 163.291 213.751C163.231 213.724 163.172 213.697 163.107 213.671Z" fill="#BF3930"/>
<path fill-rule="evenodd" clip-rule="evenodd" d="M162.595 213.473C162.668 213.499 162.733 213.522 162.8 213.549C162.733 213.522 162.668 213.499 162.595 213.473Z" fill="#BF3930"/>
<path fill-rule="evenodd" clip-rule="evenodd" d="M161.356 213.097C161.396 213.109 161.43 213.12 161.471 213.132C161.43 213.12 161.396 213.109 161.356 213.097Z" fill="#BF3930"/>
<path fill-rule="evenodd" clip-rule="evenodd" d="M162.005 213.28C162.078 213.303 162.143 213.324 162.212 213.347C162.143 213.324 162.078 213.303 162.005 213.28Z" fill="#BF3930"/>
<path fill-rule="evenodd" clip-rule="evenodd" d="M141.026 218.626C141.104 219.261 141.374 221.504 141.451 222.135C141.451 222.136 141.453 222.138 141.453 222.142C154.705 221.676 164.426 220.148 164.426 218.335V214.804C164.426 216.636 154.496 218.179 141.026 218.626Z" fill="#DB372B"/>
<path fill-rule="evenodd" clip-rule="evenodd" d="M164.335 214.516C164.349 214.541 164.368 214.562 164.378 214.587C164.368 214.562 164.349 214.541 164.335 214.516Z" fill="#BF3930"/>
<path fill-rule="evenodd" clip-rule="evenodd" d="M164.01 214.164C164.065 214.206 164.111 214.25 164.155 214.292C164.111 214.25 164.065 214.206 164.01 214.164Z" fill="#E0412C"/>
<path fill-rule="evenodd" clip-rule="evenodd" d="M162.8 213.549C162.907 213.589 163.01 213.63 163.106 213.67C163.01 213.63 162.907 213.589 162.8 213.549Z" fill="#E0412C"/>
<path fill-rule="evenodd" clip-rule="evenodd" d="M161.47 213.131C161.656 213.179 161.836 213.23 162.005 213.28C161.836 213.23 161.656 213.179 161.47 213.131Z" fill="#E0412C"/>
<path fill-rule="evenodd" clip-rule="evenodd" d="M162.213 213.348C162.345 213.388 162.473 213.432 162.594 213.472C162.473 213.432 162.345 213.388 162.213 213.348Z" fill="#E0412C"/>
<path fill-rule="evenodd" clip-rule="evenodd" d="M164.238 214.375C164.278 214.421 164.309 214.47 164.336 214.516C164.309 214.47 164.278 214.421 164.238 214.375Z" fill="#E0412C"/>
<path fill-rule="evenodd" clip-rule="evenodd" d="M164.377 214.587C164.408 214.658 164.425 214.731 164.425 214.803C164.425 214.731 164.408 214.658 164.377 214.587Z" fill="#E0412C"/>
<path fill-rule="evenodd" clip-rule="evenodd" d="M163.694 213.956C163.765 213.996 163.828 214.038 163.89 214.079C163.828 214.038 163.765 213.996 163.694 213.956Z" fill="#E0412C"/>
<path fill-rule="evenodd" clip-rule="evenodd" d="M163.291 213.751C163.377 213.791 163.462 213.831 163.538 213.871C163.462 213.831 163.377 213.791 163.291 213.751Z" fill="#E0412C"/>
<path fill-rule="evenodd" clip-rule="evenodd" d="M164.378 214.587C164.368 214.562 164.349 214.541 164.335 214.517C164.309 214.469 164.28 214.421 164.238 214.375C164.215 214.346 164.184 214.318 164.155 214.293C164.111 214.249 164.065 214.207 164.01 214.163C163.973 214.136 163.931 214.107 163.889 214.079C163.829 214.039 163.764 213.997 163.695 213.956C163.645 213.928 163.592 213.901 163.538 213.872C163.461 213.83 163.379 213.792 163.291 213.752C163.231 213.725 163.172 213.696 163.107 213.672C163.011 213.629 162.906 213.589 162.8 213.549C162.733 213.522 162.666 213.499 162.595 213.473C162.474 213.433 162.344 213.389 162.214 213.348C162.143 213.325 162.078 213.302 162.005 213.28C161.836 213.23 161.656 213.18 161.47 213.13C161.43 213.119 161.395 213.109 161.355 213.098C149.311 214.702 140.818 216.914 141.025 218.622V218.625C154.497 218.178 164.426 216.635 164.426 214.803C164.426 214.731 164.408 214.658 164.378 214.587Z" fill="#BF3930"/>
<path fill-rule="evenodd" clip-rule="evenodd" d="M206.001 213.138C205.739 210.965 191.506 210.433 174.21 211.947C156.916 213.462 143.108 216.448 143.371 218.622C143.447 219.253 143.719 221.503 143.796 222.134C144.061 224.306 158.294 224.84 175.588 223.326C192.884 221.811 206.69 218.823 206.427 216.651C206.35 216.02 206.078 213.769 206.001 213.138Z" fill="#FF4A32"/>
<path fill-rule="evenodd" clip-rule="evenodd" d="M201.241 218.161C199.142 219.341 195.751 219.056 195.537 218.614C195.209 217.939 201.875 215.909 202.659 216.519C203.033 216.807 202.076 217.693 201.241 218.161Z" fill="#FFF6F8"/>
<path fill-rule="evenodd" clip-rule="evenodd" d="M206.001 213.138C206.264 215.31 192.458 218.299 175.162 219.813C157.868 221.328 143.635 220.794 143.371 218.622C143.108 216.448 156.916 213.462 174.21 211.947C191.506 210.433 205.739 210.965 206.001 213.138Z" fill="#E0412C"/>
<path fill-rule="evenodd" clip-rule="evenodd" d="M192.605 220.075C192.883 220.494 193.638 220.559 194.077 220.144C194.355 219.88 194.597 219.341 194.378 218.838C194.177 218.373 193.686 218.173 193.33 218.239C192.638 218.369 192.251 219.542 192.605 220.075Z" fill="#FFF6F8"/>
<path fill-rule="evenodd" clip-rule="evenodd" d="M169.797 213.316C169.797 213.316 149.674 215.1 148.44 217.146C147.205 219.191 161.032 219.299 168.685 219.035C176.341 218.773 171.896 217.67 169.736 216.411C167.574 215.151 175.538 212.792 169.797 213.316Z" fill="#DB372B"/>
<path fill-rule="evenodd" clip-rule="evenodd" d="M174.21 211.947C169.907 212.322 165.821 212.79 162.112 213.316C157.431 211.869 146.14 210.85 132.946 210.85C115.56 210.85 101.465 212.62 101.465 214.804C101.465 216.027 105.888 217.119 112.832 217.846H191.19C200.225 216.36 206.174 214.57 206.002 213.138C205.739 210.964 191.504 210.433 174.21 211.947Z" fill="#85321A"/>
<path fill-rule="evenodd" clip-rule="evenodd" d="M199.583 215.23H107.669C101.666 215.23 96.8 210.375 96.8 204.385C96.8 198.394 101.666 193.54 107.669 193.54H199.583C205.586 193.54 210.455 198.394 210.455 204.385C210.455 210.375 205.586 215.23 199.583 215.23Z" fill="#D64F2A"/>
<path fill-rule="evenodd" clip-rule="evenodd" d="M200.901 193.541H104.56C100.274 193.541 96.7992 197.005 96.7992 201.284V207.487C96.7992 211.764 100.274 215.23 104.56 215.23H112.382C112.148 214.295 112.115 213.358 112.455 212.422C115.249 204.666 139.407 207.406 157.199 207.716C170.148 207.942 188.201 207.032 210.375 201.894C209.792 197.187 205.777 193.541 200.901 193.541Z" fill="#A33C20"/>
</g>
<mask id="mask2" mask-type="alpha" maskUnits="userSpaceOnUse" x="96" y="194" width="114" height="22">
<path fill-rule="evenodd" clip-rule="evenodd" d="M106.896 194.411C100.895 194.411 96.0291 199.067 96.0291 204.809C96.0291 210.553 100.895 215.206 106.896 215.206H198.756C204.757 215.206 209.621 210.553 209.621 204.809C209.621 199.067 204.757 194.411 198.756 194.411H106.896Z" fill="white"/>
</mask>
<g mask="url(#mask2)">
<path fill-rule="evenodd" clip-rule="evenodd" d="M122.969 220.896L116.295 224.947L95.2694 193.212L101.941 189.163L122.969 220.896Z" fill="#85321A"/>
</g>
<mask id="mask3" mask-type="alpha" maskUnits="userSpaceOnUse" x="96" y="194" width="114" height="22">
<path fill-rule="evenodd" clip-rule="evenodd" d="M106.896 194.411C100.895 194.411 96.0291 199.067 96.0291 204.809C96.0291 210.553 100.895 215.206 106.896 215.206H198.756C204.757 215.206 209.621 210.553 209.621 204.809C209.621 199.067 204.757 194.411 198.756 194.411H106.896Z" fill="white"/>
</mask>
<g mask="url(#mask3)">
<path fill-rule="evenodd" clip-rule="evenodd" d="M143.711 220.896L137.039 224.947L116.011 193.212L122.683 189.163L143.711 220.896Z" fill="#85321A"/>
</g>
<mask id="mask4" mask-type="alpha" maskUnits="userSpaceOnUse" x="96" y="194" width="114" height="22">
<path fill-rule="evenodd" clip-rule="evenodd" d="M106.896 194.411C100.895 194.411 96.0291 199.067 96.0291 204.809C96.0291 210.553 100.895 215.206 106.896 215.206H198.756C204.757 215.206 209.621 210.553 209.621 204.809C209.621 199.067 204.757 194.411 198.756 194.411H106.896Z" fill="white"/>
</mask>
<g mask="url(#mask4)">
<path fill-rule="evenodd" clip-rule="evenodd" d="M164.454 220.896L157.78 224.947L136.754 193.212L143.426 189.163L164.454 220.896Z" fill="#85321A"/>
</g>
<mask id="mask5" mask-type="alpha" maskUnits="userSpaceOnUse" x="96" y="194" width="114" height="22">
<path fill-rule="evenodd" clip-rule="evenodd" d="M106.896 194.411C100.895 194.411 96.0291 199.067 96.0291 204.809C96.0291 210.553 100.895 215.206 106.896 215.206H198.756C204.757 215.206 209.621 210.553 209.621 204.809C209.621 199.067 204.757 194.411 198.756 194.411H106.896Z" fill="white"/>
</mask>
<g mask="url(#mask5)">
<path fill-rule="evenodd" clip-rule="evenodd" d="M185.197 220.896L178.523 224.947L157.495 193.212L164.169 189.163L185.197 220.896Z" fill="#85321A"/>
</g>
<mask id="mask6" mask-type="alpha" maskUnits="userSpaceOnUse" x="96" y="194" width="114" height="22">
<path fill-rule="evenodd" clip-rule="evenodd" d="M106.896 194.411C100.895 194.411 96.0291 199.067 96.0291 204.809C96.0291 210.553 100.895 215.206 106.896 215.206H198.756C204.757 215.206 209.621 210.553 209.621 204.809C209.621 199.067 204.757 194.411 198.756 194.411H106.896Z" fill="white"/>
</mask>
<g mask="url(#mask6)">
<path fill-rule="evenodd" clip-rule="evenodd" d="M205.939 220.896L199.267 224.947L178.24 193.212L184.912 189.163L205.939 220.896Z" fill="#85321A"/>
</g>
<path fill-rule="evenodd" clip-rule="evenodd" d="M214.682 199.111C213.322 168.309 186.671 143.736 153.988 143.736C121.304 143.736 94.6539 168.309 93.2937 199.111H214.682Z" fill="#FFAD4B"/>
<path fill-rule="evenodd" clip-rule="evenodd" d="M197.255 164.417C204.738 172.876 207.336 182.809 203.058 186.599C198.778 190.392 189.243 186.606 181.762 178.148C174.277 169.689 171.679 159.755 175.959 155.964C180.237 152.172 189.772 155.956 197.255 164.417Z" fill="#FFC94B"/>
<path fill-rule="evenodd" clip-rule="evenodd" d="M168.641 190.212C164.63 188.973 140.791 181.615 135.383 163.512C133.561 157.414 134.276 151.565 135.925 146.345C111.986 153.437 94.3929 174.24 93.2932 199.112H214.681C214.542 195.929 214.116 192.816 213.457 189.788C201.332 193.19 185.506 195.419 168.641 190.212Z" fill="#F07D46"/>
<path fill-rule="evenodd" clip-rule="evenodd" d="M153.519 169.458C154.963 169.295 156.186 169.602 156.247 170.143C156.308 170.688 155.187 171.259 153.741 171.424C152.295 171.587 151.074 171.28 151.011 170.737C150.952 170.197 152.072 169.623 153.519 169.458Z" fill="#FFF6F8"/>
<path fill-rule="evenodd" clip-rule="evenodd" d="M178.369 154.995C179.543 155.854 180.235 156.909 179.913 157.35C179.591 157.789 178.377 157.45 177.202 156.591C176.028 155.732 175.336 154.679 175.658 154.236C175.98 153.797 177.195 154.136 178.369 154.995Z" fill="#FFF6F8"/>
<path fill-rule="evenodd" clip-rule="evenodd" d="M179.209 184.004C180.037 185.203 180.343 186.426 179.895 186.737C179.447 187.047 178.412 186.328 177.584 185.13C176.757 183.933 176.448 182.71 176.897 182.399C177.345 182.088 178.381 182.807 179.209 184.004Z" fill="#FFF6F8"/>
<path fill-rule="evenodd" clip-rule="evenodd" d="M206.398 185.008C207.226 186.206 207.535 187.43 207.084 187.74C206.636 188.051 205.601 187.332 204.774 186.133C203.946 184.937 203.64 183.713 204.086 183.403C204.536 183.092 205.571 183.811 206.398 185.008Z" fill="#FFF6F8"/>
<path fill-rule="evenodd" clip-rule="evenodd" d="M122.192 179.76C121.081 180.7 119.895 181.126 119.542 180.708C119.19 180.292 119.805 179.191 120.914 178.251C122.025 177.31 123.211 176.884 123.563 177.302C123.916 177.72 123.303 178.819 122.192 179.76Z" fill="#FFDCCB"/>
<path fill-rule="evenodd" clip-rule="evenodd" d="M191.321 172.934C190.21 173.874 189.024 174.3 188.671 173.881C188.321 173.465 188.934 172.365 190.043 171.425C191.156 170.483 192.34 170.058 192.693 170.476C193.045 170.892 192.432 171.993 191.321 172.934Z" fill="#FFF6F8"/>
<path fill-rule="evenodd" clip-rule="evenodd" d="M195.602 188.426C194.491 189.365 193.305 189.791 192.954 189.375C192.602 188.957 193.215 187.856 194.326 186.917C195.437 185.975 196.621 185.549 196.973 185.967C197.326 186.385 196.713 187.484 195.602 188.426Z" fill="#FFF6F8"/>
<path fill-rule="evenodd" clip-rule="evenodd" d="M126.276 163.074C127.104 164.273 127.412 165.494 126.962 165.805C126.514 166.116 125.479 165.396 124.651 164.2C123.824 163.001 123.517 161.778 123.964 161.469C124.414 161.158 125.448 161.878 126.276 163.074Z" fill="#FFDCCB"/>
<path fill-rule="evenodd" clip-rule="evenodd" d="M138.788 173.704C139.616 174.902 139.924 176.126 139.474 176.435C139.028 176.745 137.991 176.028 137.164 174.83C136.336 173.633 136.03 172.409 136.478 172.099C136.926 171.788 137.961 172.507 138.788 173.704Z" fill="#FFDCCB"/>
<path fill-rule="evenodd" clip-rule="evenodd" d="M155.895 154.748C157.069 155.607 157.761 156.662 157.439 157.103C157.117 157.542 155.903 157.203 154.73 156.344C153.554 155.484 152.862 154.432 153.184 153.989C153.506 153.55 154.72 153.889 155.895 154.748Z" fill="#FFF6F8"/>
<path fill-rule="evenodd" clip-rule="evenodd" d="M139.108 152.012C140.283 152.871 140.974 153.926 140.652 154.367C140.331 154.808 139.116 154.469 137.942 153.609C136.767 152.75 136.076 151.696 136.397 151.253C136.719 150.813 137.934 151.153 139.108 152.012Z" fill="#FFF6F8"/>
<path fill-rule="evenodd" clip-rule="evenodd" d="M174.045 170.906C172.626 171.226 171.378 171.056 171.258 170.522C171.137 169.989 172.191 169.297 173.608 168.977C175.028 168.655 176.277 168.825 176.398 169.358C176.517 169.892 175.465 170.584 174.045 170.906Z" fill="#FFF6F8"/>
<path fill-rule="evenodd" clip-rule="evenodd" d="M138.483 192.495C137.063 192.817 135.816 192.645 135.695 192.113C135.574 191.578 136.628 190.888 138.046 190.566C139.465 190.244 140.714 190.416 140.835 190.947C140.954 191.481 139.902 192.173 138.483 192.495Z" fill="#FFDCCB"/>
<path fill-rule="evenodd" clip-rule="evenodd" d="M107.859 176.921C106.439 177.242 105.192 177.071 105.071 176.538C104.951 176.005 106.004 175.312 107.422 174.992C108.842 174.67 110.091 174.841 110.211 175.374C110.33 175.907 109.279 176.599 107.859 176.921Z" fill="#FFDCCB"/>
<path fill-rule="evenodd" clip-rule="evenodd" d="M162.274 181.948C160.854 182.268 159.607 182.097 159.486 181.566C159.366 181.031 160.419 180.339 161.837 180.019C163.256 179.696 164.506 179.867 164.624 180.4C164.745 180.933 163.693 181.626 162.274 181.948Z" fill="#FFF6F8"/>
<path fill-rule="evenodd" clip-rule="evenodd" d="M155.906 194.119C154.487 194.441 153.239 194.268 153.119 193.737C152.998 193.202 154.052 192.512 155.469 192.189C156.889 191.867 158.136 192.04 158.257 192.571C158.378 193.104 157.326 193.797 155.906 194.119Z" fill="#FFDCCB"/>
<path fill-rule="evenodd" clip-rule="evenodd" d="M112.057 192.66C110.638 192.982 109.39 192.81 109.27 192.278C109.149 191.743 110.203 191.053 111.62 190.731C113.04 190.409 114.289 190.581 114.41 191.112C114.53 191.645 113.477 192.338 112.057 192.66Z" fill="#FFDCCB"/>
<path fill-rule="evenodd" clip-rule="evenodd" d="M107.579 214.936H146.435L126.019 225.484L107.579 214.936Z" fill="#E6C82E"/>
<path fill-rule="evenodd" clip-rule="evenodd" d="M166.11 214.936H204.966L184.549 225.484L166.11 214.936Z" fill="#E6C82E"/>
<path fill-rule="evenodd" clip-rule="evenodd" d="M146.435 214.936H107.579L112.334 217.656H141.172L146.435 214.936Z" fill="#D4942A"/>
<path fill-rule="evenodd" clip-rule="evenodd" d="M170.864 217.656H199.702L204.965 214.936H166.111L170.864 217.656Z" fill="#D4942A"/>
<path fill-rule="evenodd" clip-rule="evenodd" d="M127.254 220.189C129.572 218.12 133.216 218.515 133.429 219.263C133.753 220.406 126.467 224.052 125.649 223.031C125.26 222.546 126.331 221.014 127.254 220.189Z" fill="#FFF6F8"/>
<path fill-rule="evenodd" clip-rule="evenodd" d="M185.908 220.56C188.226 218.491 191.871 218.886 192.082 219.634C192.406 220.777 185.122 224.422 184.302 223.402C183.913 222.917 184.986 221.385 185.908 220.56Z" fill="#FFF6F8"/>
<path fill-rule="evenodd" clip-rule="evenodd" d="M181.709 221.425C181.953 221.841 182.757 221.964 183.284 221.611C183.617 221.385 183.947 220.898 183.778 220.405C183.623 219.951 183.121 219.722 182.729 219.757C181.966 219.822 181.397 220.894 181.709 221.425Z" fill="#FFF6F8"/>
<path fill-rule="evenodd" clip-rule="evenodd" d="M183.63 118.196L178.796 133.652L198.518 130.96L183.63 118.196Z" fill="#FF4A32"/>
<path fill-rule="evenodd" clip-rule="evenodd" d="M171.782 155.523L171.263 155.353L183.611 117.53L184.13 117.699L171.782 155.523Z" fill="#FFF6F8"/>
<path fill-rule="evenodd" clip-rule="evenodd" d="M114.418 10.3367C127.095 24.0578 100.448 56.6605 90.806 61.3282C81.162 65.9939 45.5187 83.1132 34.8267 75.266C24.1347 67.4226 99.9137 -5.36158 114.418 10.3367Z" fill="#FEF6F4"/>
</svg>
