<svg width="155" height="185" viewBox="0 0 155 185" fill="none" xmlns="http://www.w3.org/2000/svg">
<path fill-rule="evenodd" clip-rule="evenodd" d="M14.5832 61.6462L25.7365 62.5269C27.8951 62.6972 29.7974 61.248 29.985 59.2895C30.1726 57.331 28.5754 55.6055 26.4169 55.4348L15.2631 54.5541C13.105 54.3839 11.2027 55.8335 11.015 57.7915C10.8269 59.75 12.4246 61.476 14.5832 61.6462ZM140.065 63.3533C137.96 63.0733 39.4222 56.6133 39.4222 56.6133C39.4222 56.6133 39.4373 56.6483 39.4719 56.7133L39.4739 56.7173L37.842 56.6053C35.5139 56.4453 33.4963 58.1948 33.3355 60.5123C33.1748 62.8298 34.9323 64.8383 37.2609 64.9983L43.6117 65.4343C43.6193 65.4515 43.6279 65.4689 43.6366 65.4863C43.6453 65.5037 43.6539 65.521 43.6615 65.5383L94.2208 69.0083C96.5519 69.1683 98.3099 71.1783 98.1491 73.4983C97.9929 75.7133 96.14 77.4133 93.935 77.4133C93.8395 77.4133 93.7486 77.4088 93.6532 77.404L93.6381 77.4033L73.4167 76.0133L73.4197 76.0583L61.4724 75.2383L61.4587 75.2376C61.3632 75.2328 61.2719 75.2283 61.1756 75.2283C58.9761 75.2283 57.1226 76.9283 56.9669 79.1433C56.8062 81.4483 58.5441 83.4483 60.8496 83.6283L74.0847 84.5383L98.109 86.1883C100.439 86.3483 102.197 88.3533 102.037 90.6738C101.881 92.8883 100.028 94.5883 97.8277 94.5883C97.7324 94.5883 97.6416 94.5838 97.5464 94.579H97.5463H97.5462L97.5308 94.5783L74.7427 93.0133L74.7478 93.0783L61.4724 92.1683L61.4588 92.1676C61.3633 92.1628 61.272 92.1583 61.1756 92.1583C59.7395 92.1583 58.4487 92.8838 57.6902 94.0033C57.2784 94.5983 57.0222 95.3033 56.9669 96.0733C56.8062 98.3933 58.5642 100.404 60.8898 100.563L75.4058 101.558L80.6546 101.918L80.6948 101.924C83.5829 102.263 86.566 102.483 89.54 102.529H89.5747C91.4833 102.563 93.3825 102.523 95.2459 102.404C98.9879 102.158 102.564 101.569 105.724 100.529C119.09 96.1323 129.067 84.0404 135.437 76.3213L135.437 76.3212C136.95 74.4881 138.259 72.9016 139.361 71.7233C145.113 65.5833 142.169 63.6333 140.065 63.3533ZM46.7369 81.5269L35.5831 80.6462C33.4251 80.4756 31.8274 78.75 32.015 76.7915C32.2031 74.833 34.1049 73.3839 36.2635 73.5541L47.4168 74.4348C49.5759 74.605 51.1731 76.331 50.985 78.2895C50.7973 80.248 48.8955 81.6972 46.7369 81.5269ZM50.0068 98.5275L47.3563 98.3144C45.3344 98.1521 43.8383 96.5072 44.014 94.6397C44.1898 92.7727 45.9717 91.3912 47.9936 91.5535L50.6436 91.7666C52.666 91.9293 54.1621 93.5742 53.9859 95.4408C53.8102 97.3083 52.0287 98.6902 50.0068 98.5275ZM21.3567 77.3145L24.0065 77.5276C26.0284 77.6899 27.8102 76.3084 27.986 74.4413C28.1617 72.5743 26.6657 70.9293 24.6438 70.7666L21.9935 70.5535C19.9716 70.3912 18.1902 71.7727 18.014 73.6397C17.8383 75.5072 19.3343 77.1522 21.3567 77.3145Z" fill="#9FBFD4"/>
<path fill-rule="evenodd" clip-rule="evenodd" d="M41.985 40.3912C40.0315 46.4248 43.101 49.4419 52.3105 49.9902C61.5195 50.5386 129.054 55.4755 134.077 56.0239C139.101 56.5723 143.287 54.9271 142.729 48.2075C142.171 41.4884 135.753 11.8685 102.543 4.46346C102.543 4.46346 102.148 0.543729 99.694 0.555522C97.2405 0.566824 89.9845 -0.153047 89.194 0.0297461C88.403 0.212539 87.334 2.22375 87.4265 3.04632C87.52 3.86938 54.45 3.00063 41.985 40.3912" fill="#FFF6F8"/>
<path fill-rule="evenodd" clip-rule="evenodd" d="M26.9146 139.76C26.9146 147.778 22.1157 152.598 14.0151 152.598C5.38135 152.598 0.00830078 146.732 0.00830078 137.196C0.00830078 127.804 5.36084 122.021 13.9126 122.021C20.6392 122.021 25.7251 125.999 26.689 131.926H21.3159C20.311 128.521 17.563 126.512 13.9331 126.512C8.60107 126.512 5.42236 130.47 5.42236 137.135C5.42236 143.943 8.74463 148.106 14.0767 148.106C18.5474 148.106 21.644 145.276 21.7261 141.134L21.7466 140.642H14.6099V136.602H26.9146V139.76ZM50.8472 141.236C50.8472 148.291 46.7046 152.536 40.3267 152.536C33.9487 152.536 29.8062 148.291 29.8062 141.236C29.8062 134.223 33.9897 129.916 40.3267 129.916C46.6636 129.916 50.8472 134.202 50.8472 141.236ZM40.3267 148.496C37.0864 148.496 34.9946 145.871 34.9946 141.236C34.9946 136.622 37.1069 133.977 40.3267 133.977C43.5669 133.977 45.6587 136.622 45.6587 141.236C45.6587 145.871 43.5669 148.496 40.3267 148.496ZM59.2349 139.514V152.105H54.1284V130.367H59.0298V134.1H59.1323C60.3013 131.516 62.6187 129.957 65.9614 129.957C70.7603 129.957 73.4878 133.033 73.4878 138.058V152.105H68.3813V139.083C68.3813 136.007 66.9458 134.284 64.0337 134.284C61.1011 134.284 59.2349 136.396 59.2349 139.514Z" fill="#FFF6F8"/>
<path fill-rule="evenodd" clip-rule="evenodd" d="M130.479 152.208C131.566 152.208 132.571 152.126 133.125 152.003V148.106C132.796 148.168 132.14 148.209 131.668 148.209C129.864 148.209 129.043 147.389 129.043 145.604V134.305H133.145V130.367H129.043V125.281H123.937V130.367H120.82V134.305H123.937V146.322C123.937 150.547 125.783 152.208 130.479 152.208ZM96.7437 145.604C96.0874 149.706 92.2729 152.536 87.1255 152.536C80.604 152.536 76.6665 148.25 76.6665 141.318C76.6665 134.448 80.645 129.916 86.9204 129.916C93.0933 129.916 96.9487 134.202 96.9487 140.806V142.467H81.7524V142.774C81.7524 146.261 83.8853 148.599 87.228 148.599C89.6069 148.599 91.4116 147.409 91.9653 145.604H96.7437ZM81.7935 139.104H91.9448C91.8423 136.027 89.8735 133.874 86.9409 133.874C84.0698 133.874 81.9985 136.068 81.7935 139.104ZM106.628 152.454C109.417 152.454 112.145 150.998 113.396 148.64H113.499V152.105H118.42V137.135C118.42 132.767 114.914 129.916 109.52 129.916C103.983 129.916 100.517 132.828 100.292 136.889H105.029C105.357 135.084 106.895 133.915 109.315 133.915C111.837 133.915 113.375 135.228 113.375 137.504V139.062L107.633 139.391C102.342 139.719 99.3687 142.036 99.3687 145.892C99.3687 149.809 102.424 152.454 106.628 152.454ZM104.475 145.687C104.475 147.471 105.952 148.599 108.167 148.599C111.058 148.599 113.375 146.671 113.375 144.046V142.385L108.351 142.692C105.89 142.856 104.475 143.964 104.475 145.687ZM154.227 145.666C154.227 149.768 150.433 152.536 144.937 152.536C139.482 152.536 136.016 149.829 135.667 145.707H140.692C141 147.696 142.538 148.804 145.122 148.804C147.603 148.804 149.141 147.799 149.141 146.179C149.141 144.907 148.341 144.23 146.229 143.697L142.271 142.774C138.251 141.831 136.221 139.739 136.221 136.602C136.221 132.623 139.728 129.916 145.019 129.916C150.125 129.916 153.591 132.664 153.714 136.684H148.957C148.792 134.817 147.295 133.669 144.917 133.669C142.661 133.669 141.184 134.735 141.184 136.314C141.184 137.545 142.168 138.365 144.301 138.878L148.177 139.739C152.525 140.765 154.227 142.446 154.227 145.666Z" fill="#9FBFD4"/>
</svg>
