<svg width="156" height="185" viewBox="0 0 156 185" fill="none" xmlns="http://www.w3.org/2000/svg">
<path fill-rule="evenodd" clip-rule="evenodd" d="M69.2397 181.627V175.058H70.7925V174.01H69.2324V173.168C69.2324 172.414 69.562 172.047 70.2505 172.047C70.4629 172.047 70.6753 172.069 70.8291 172.091V171.059C70.646 171.029 70.3384 171 70.0527 171C68.6465 171 67.9653 171.696 67.9653 173.161V174.01H66.9033V175.058H67.9653V181.627H69.2397ZM5.65088 172.245V181.627H4.33252V172.245H1V171.059H8.9834V172.245H5.65088ZM11.5176 177.189V181.627H10.2432V171.059H11.5176V175.226H11.5469C11.9717 174.376 12.8066 173.878 13.9639 173.878C15.6338 173.878 16.6445 175.006 16.6445 176.706V181.627H15.3701V176.94C15.3701 175.731 14.7622 175.006 13.5684 175.006C12.3013 175.006 11.5176 175.871 11.5176 177.189ZM21.3979 181.759C23.0605 181.759 24.3496 180.778 24.5693 179.445H23.3169C23.1045 180.163 22.394 180.653 21.4272 180.653C20.0576 180.653 19.2007 179.694 19.2007 178.236V178.163H24.6646V177.68C24.6646 175.373 23.3975 173.878 21.3394 173.878C19.2373 173.878 17.8896 175.482 17.8896 177.848C17.8896 180.243 19.2153 181.759 21.3979 181.759ZM19.208 177.167H23.3462C23.3169 175.893 22.5186 174.984 21.3174 174.984C20.1235 174.984 19.2886 175.9 19.208 177.167ZM32.8091 181.759C34.7573 181.759 36.0464 180.214 36.0464 177.819C36.0464 175.431 34.75 173.878 32.8311 173.878C31.7544 173.878 30.8682 174.413 30.3921 175.285H30.3628V171.059H29.0884V181.627H30.3042V180.338H30.3335C30.8242 181.217 31.6958 181.759 32.8091 181.759ZM30.3555 177.819C30.3555 179.518 31.271 180.639 32.5601 180.639C33.9077 180.639 34.7427 179.562 34.7427 177.819C34.7427 176.09 33.9077 174.999 32.5601 174.999C31.271 174.999 30.3555 176.127 30.3555 177.819ZM40.4702 181.759C42.1328 181.759 43.4219 180.778 43.6416 179.445H42.3892C42.1768 180.163 41.4663 180.653 40.4995 180.653C39.1299 180.653 38.2729 179.694 38.2729 178.236V178.163H43.7368V177.68C43.7368 175.373 42.4697 173.878 40.4116 173.878C38.3096 173.878 36.9619 175.482 36.9619 177.848C36.9619 180.243 38.2876 181.759 40.4702 181.759ZM38.2803 177.167H42.4185C42.3892 175.893 41.5908 174.984 40.3896 174.984C39.1958 174.984 38.3608 175.9 38.2803 177.167ZM47.6479 181.759C49.4277 181.759 50.6802 180.822 50.6802 179.496C50.6802 178.375 50.1235 177.819 48.5854 177.431L47.4062 177.145C46.542 176.925 46.1392 176.574 46.1392 176.046C46.1392 175.38 46.7544 174.918 47.6846 174.918C48.6221 174.918 49.2153 175.373 49.3032 176.105H50.519C50.4604 174.816 49.3032 173.878 47.7285 173.878C46.0513 173.878 44.8867 174.809 44.8867 176.112C44.8867 177.152 45.5459 177.841 46.8862 178.185L48.2266 178.529C49.0835 178.756 49.3984 179.049 49.3984 179.591C49.3984 180.28 48.7612 180.719 47.7285 180.719C46.6958 180.719 46.0952 180.294 45.9561 179.503H44.6816C44.8135 180.851 45.978 181.759 47.6479 181.759ZM55.1553 181.627C55.0015 181.664 54.6499 181.686 54.3496 181.686C52.9507 181.686 52.4087 181.115 52.4087 179.65V175.058H51.2734V174.01H52.4087V172.172H53.6831V174.01H55.1626V175.058H53.6831V179.584C53.6831 180.28 53.9761 180.595 54.6279 180.595C54.7744 180.595 55.0674 180.573 55.1553 180.558V181.627ZM62.7505 181.759C64.8525 181.759 66.2734 180.243 66.2734 177.819C66.2734 175.387 64.8525 173.878 62.7505 173.878C60.6411 173.878 59.2202 175.387 59.2202 177.819C59.2202 180.243 60.6411 181.759 62.7505 181.759ZM60.5166 177.819C60.5166 179.613 61.4028 180.639 62.7505 180.639C64.0981 180.639 64.9771 179.613 64.9771 177.819C64.9771 176.024 64.0981 174.999 62.7505 174.999C61.4028 174.999 60.5166 176.024 60.5166 177.819ZM76.8716 175.058V181.627H75.5972V175.058H74.5352V174.01H75.5972V173.161C75.5972 171.696 76.2783 171 77.6846 171C77.9702 171 78.2778 171.029 78.4609 171.059V172.091C78.3071 172.069 78.0947 172.047 77.8823 172.047C77.1938 172.047 76.8643 172.414 76.8643 173.168V174.01H78.4243V175.058H76.8716ZM82.5332 181.759C84.6353 181.759 86.0562 180.243 86.0562 177.819C86.0562 175.387 84.6353 173.878 82.5332 173.878C80.4238 173.878 79.0029 175.387 79.0029 177.819C79.0029 180.243 80.4238 181.759 82.5332 181.759ZM80.2993 177.819C80.2993 179.613 81.1855 180.639 82.5332 180.639C83.8809 180.639 84.7598 179.613 84.7598 177.819C84.7598 176.024 83.8809 174.999 82.5332 174.999C81.1855 174.999 80.2993 176.024 80.2993 177.819ZM90.4946 181.759C92.5967 181.759 94.0176 180.243 94.0176 177.819C94.0176 175.387 92.5967 173.878 90.4946 173.878C88.3853 173.878 86.9644 175.387 86.9644 177.819C86.9644 180.243 88.3853 181.759 90.4946 181.759ZM88.2607 177.819C88.2607 179.613 89.147 180.639 90.4946 180.639C91.8423 180.639 92.7212 179.613 92.7212 177.819C92.7212 176.024 91.8423 174.999 90.4946 174.999C89.147 174.999 88.2607 176.024 88.2607 177.819ZM98.1851 181.759C99.2837 181.759 100.155 181.217 100.646 180.338H100.668V181.627H101.884V171.059H100.609V175.248H100.58C100.126 174.413 99.2471 173.878 98.1558 173.878C96.2368 173.878 94.9258 175.431 94.9258 177.819C94.9258 180.207 96.2441 181.759 98.1851 181.759ZM96.2295 177.819C96.2295 179.547 97.0791 180.639 98.4268 180.639C99.7378 180.639 100.617 179.525 100.617 177.819C100.617 176.12 99.7378 174.999 98.4268 174.999C97.0791 174.999 96.2295 176.098 96.2295 177.819ZM108.366 181.627V175.058H109.918V174.01H108.358V173.168C108.358 172.414 108.688 172.047 109.376 172.047C109.589 172.047 109.801 172.069 109.955 172.091V171.059C109.772 171.029 109.464 171 109.179 171C107.772 171 107.091 171.696 107.091 173.161V174.01H106.029V175.058H107.091V181.627H108.366ZM117.55 177.819C117.55 180.243 116.129 181.759 114.027 181.759C111.918 181.759 110.497 180.243 110.497 177.819C110.497 175.387 111.918 173.878 114.027 173.878C116.129 173.878 117.55 175.387 117.55 177.819ZM114.027 180.639C112.68 180.639 111.793 179.613 111.793 177.819C111.793 176.024 112.68 174.999 114.027 174.999C115.375 174.999 116.254 176.024 116.254 177.819C116.254 179.613 115.375 180.639 114.027 180.639ZM120.106 176.881V181.627H118.832V174.01H120.033V175.255H120.062C120.312 174.413 121.015 173.878 121.908 173.878C122.091 173.878 122.254 173.904 122.363 173.921C122.384 173.924 122.404 173.927 122.421 173.93V175.167C122.318 175.131 122.047 175.094 121.74 175.094C120.751 175.094 120.106 175.805 120.106 176.881ZM127.16 184.477C128.537 184.477 129.167 183.942 129.818 182.162L132.814 174.01H131.474L129.364 180.353H129.342L127.233 174.01H125.871L128.683 181.635L128.507 182.169C128.214 183.056 127.819 183.4 127.108 183.4C126.947 183.4 126.75 183.393 126.61 183.363V184.433C126.75 184.462 127.006 184.477 127.16 184.477ZM140.277 177.819C140.277 180.243 138.856 181.759 136.754 181.759C134.645 181.759 133.224 180.243 133.224 177.819C133.224 175.387 134.645 173.878 136.754 173.878C138.856 173.878 140.277 175.387 140.277 177.819ZM136.754 180.639C135.407 180.639 134.521 179.613 134.521 177.819C134.521 176.024 135.407 174.999 136.754 174.999C138.102 174.999 138.981 176.024 138.981 177.819C138.981 179.613 138.102 180.639 136.754 180.639ZM146.576 180.39C146.122 181.269 145.331 181.759 144.159 181.759C142.497 181.759 141.522 180.683 141.522 178.954V174.01H142.797V178.727C142.797 179.965 143.375 180.631 144.555 180.631C145.792 180.631 146.54 179.782 146.54 178.485V174.01H147.814V181.627H146.605V180.39H146.576ZM151.205 178.119L151.293 171.059H149.975L150.062 178.119H151.205ZM151.469 180.866C151.469 181.334 151.11 181.701 150.634 181.701C150.165 181.701 149.799 181.334 149.799 180.866C149.799 180.39 150.165 180.031 150.634 180.031C151.11 180.031 151.469 180.39 151.469 180.866Z" fill="#8F9BB3"/>
<path fill-rule="evenodd" clip-rule="evenodd" d="M14.5832 61.6462L25.7365 62.5269C27.8951 62.6972 29.7974 61.248 29.985 59.2895C30.1726 57.331 28.5754 55.6055 26.4169 55.4348L15.2631 54.5541C13.105 54.3839 11.2027 55.8335 11.015 57.7915C10.8269 59.75 12.4246 61.476 14.5832 61.6462ZM140.065 63.3533C137.96 63.0733 39.4222 56.6133 39.4222 56.6133C39.4222 56.6133 39.4373 56.6483 39.4719 56.7133L39.4739 56.7173L37.842 56.6053C35.5139 56.4453 33.4963 58.1948 33.3355 60.5123C33.1748 62.8298 34.9323 64.8383 37.2609 64.9983L43.6117 65.4343C43.6193 65.4515 43.6279 65.4689 43.6366 65.4863C43.6453 65.5037 43.6539 65.521 43.6615 65.5383L94.2208 69.0083C96.5519 69.1683 98.3099 71.1783 98.1491 73.4983C97.9929 75.7133 96.14 77.4133 93.935 77.4133C93.8395 77.4133 93.7486 77.4088 93.6532 77.404L93.6381 77.4033L73.4167 76.0133L73.4197 76.0583L61.4724 75.2383L61.4587 75.2376C61.3632 75.2328 61.2719 75.2283 61.1756 75.2283C58.9761 75.2283 57.1226 76.9283 56.9669 79.1433C56.8062 81.4483 58.5441 83.4483 60.8496 83.6283L74.0847 84.5383L98.109 86.1883C100.439 86.3483 102.197 88.3533 102.037 90.6738C101.881 92.8883 100.028 94.5883 97.8277 94.5883C97.7324 94.5883 97.6416 94.5838 97.5464 94.579H97.5463H97.5462L97.5308 94.5783L74.7427 93.0133L74.7478 93.0783L61.4724 92.1683L61.4588 92.1676C61.3633 92.1628 61.272 92.1583 61.1756 92.1583C59.7395 92.1583 58.4487 92.8838 57.6902 94.0033C57.2784 94.5983 57.0222 95.3033 56.9669 96.0733C56.8062 98.3933 58.5642 100.404 60.8898 100.563L75.4058 101.558L80.6546 101.918L80.6948 101.924C83.5829 102.263 86.566 102.483 89.54 102.529H89.5747C91.4833 102.563 93.3825 102.523 95.2459 102.404C98.9879 102.158 102.564 101.569 105.724 100.529C119.09 96.1323 129.067 84.0404 135.437 76.3213L135.437 76.3212C136.95 74.4881 138.259 72.9016 139.361 71.7233C145.113 65.5833 142.169 63.6333 140.065 63.3533ZM46.7369 81.5269L35.5831 80.6462C33.4251 80.4756 31.8274 78.75 32.015 76.7915C32.2031 74.833 34.1049 73.3839 36.2635 73.5541L47.4168 74.4348C49.5759 74.605 51.1731 76.331 50.985 78.2895C50.7973 80.248 48.8955 81.6972 46.7369 81.5269ZM50.0068 98.5275L47.3563 98.3144C45.3344 98.1521 43.8383 96.5072 44.014 94.6397C44.1898 92.7727 45.9717 91.3912 47.9936 91.5535L50.6436 91.7666C52.666 91.9293 54.1621 93.5742 53.9859 95.4408C53.8102 97.3083 52.0287 98.6902 50.0068 98.5275ZM21.3567 77.3145L24.0065 77.5276C26.0284 77.6899 27.8102 76.3084 27.986 74.4413C28.1617 72.5743 26.6657 70.9293 24.6438 70.7666L21.9935 70.5535C19.9716 70.3912 18.1902 71.7727 18.014 73.6397C17.8383 75.5072 19.3343 77.1522 21.3567 77.3145Z" fill="#FA6400"/>
<path fill-rule="evenodd" clip-rule="evenodd" d="M41.985 40.3912C40.0315 46.4248 43.101 49.4419 52.3105 49.9902C61.5195 50.5386 129.054 55.4755 134.077 56.0239C139.101 56.5723 143.287 54.9271 142.729 48.2075C142.171 41.4884 135.753 11.8685 102.543 4.46346C102.543 4.46346 102.148 0.543729 99.694 0.555522C97.2405 0.566824 89.9845 -0.153047 89.194 0.0297461C88.403 0.212539 87.334 2.22375 87.4265 3.04632C87.52 3.86938 54.45 3.00063 41.985 40.3912Z" fill="#FF9D2B"/>
<path fill-rule="evenodd" clip-rule="evenodd" d="M26.9146 139.76C26.9146 147.778 22.1157 152.598 14.0151 152.598C5.38135 152.598 0.00830078 146.732 0.00830078 137.196C0.00830078 127.804 5.36084 122.021 13.9126 122.021C20.6392 122.021 25.7251 125.999 26.689 131.926H21.3159C20.311 128.521 17.563 126.512 13.9331 126.512C8.60107 126.512 5.42236 130.47 5.42236 137.135C5.42236 143.943 8.74463 148.106 14.0767 148.106C18.5474 148.106 21.644 145.276 21.7261 141.134L21.7466 140.642H14.6099V136.602H26.9146V139.76ZM50.8472 141.236C50.8472 148.291 46.7046 152.536 40.3267 152.536C33.9487 152.536 29.8062 148.291 29.8062 141.236C29.8062 134.223 33.9897 129.916 40.3267 129.916C46.6636 129.916 50.8472 134.202 50.8472 141.236ZM40.3267 148.496C37.0864 148.496 34.9946 145.871 34.9946 141.236C34.9946 136.622 37.1069 133.977 40.3267 133.977C43.5669 133.977 45.6587 136.622 45.6587 141.236C45.6587 145.871 43.5669 148.496 40.3267 148.496ZM59.2349 139.514V152.105H54.1284V130.367H59.0298V134.1H59.1323C60.3013 131.516 62.6187 129.957 65.9614 129.957C70.7603 129.957 73.4878 133.033 73.4878 138.058V152.105H68.3813V139.083C68.3813 136.007 66.9458 134.284 64.0337 134.284C61.1011 134.284 59.2349 136.396 59.2349 139.514Z" fill="#FF9D2B"/>
<path fill-rule="evenodd" clip-rule="evenodd" d="M130.479 152.208C131.566 152.208 132.571 152.126 133.125 152.003V148.106C132.796 148.168 132.14 148.209 131.668 148.209C129.864 148.209 129.043 147.389 129.043 145.604V134.305H133.145V130.367H129.043V125.281H123.937V130.367H120.82V134.305H123.937V146.322C123.937 150.547 125.783 152.208 130.479 152.208ZM96.7437 145.604C96.0874 149.706 92.2729 152.536 87.1255 152.536C80.604 152.536 76.6665 148.25 76.6665 141.318C76.6665 134.448 80.645 129.916 86.9204 129.916C93.0933 129.916 96.9487 134.202 96.9487 140.806V142.467H81.7524V142.774C81.7524 146.261 83.8853 148.599 87.228 148.599C89.6069 148.599 91.4116 147.409 91.9653 145.604H96.7437ZM81.7935 139.104H91.9448C91.8423 136.027 89.8735 133.874 86.9409 133.874C84.0698 133.874 81.9985 136.068 81.7935 139.104ZM106.628 152.454C109.417 152.454 112.145 150.998 113.396 148.64H113.499V152.105H118.42V137.135C118.42 132.767 114.914 129.916 109.52 129.916C103.983 129.916 100.517 132.828 100.292 136.889H105.029C105.357 135.084 106.895 133.915 109.315 133.915C111.837 133.915 113.375 135.228 113.375 137.504V139.062L107.633 139.391C102.342 139.719 99.3687 142.036 99.3687 145.892C99.3687 149.809 102.424 152.454 106.628 152.454ZM104.475 145.687C104.475 147.471 105.952 148.599 108.167 148.599C111.058 148.599 113.375 146.671 113.375 144.046V142.385L108.351 142.692C105.89 142.856 104.475 143.964 104.475 145.687ZM154.227 145.666C154.227 149.768 150.433 152.536 144.937 152.536C139.482 152.536 136.016 149.829 135.667 145.707H140.692C141 147.696 142.538 148.804 145.122 148.804C147.603 148.804 149.141 147.799 149.141 146.179C149.141 144.907 148.341 144.23 146.229 143.697L142.271 142.774C138.251 141.831 136.221 139.739 136.221 136.602C136.221 132.623 139.728 129.916 145.019 129.916C150.125 129.916 153.591 132.664 153.714 136.684H148.957C148.792 134.817 147.295 133.669 144.917 133.669C142.661 133.669 141.184 134.735 141.184 136.314C141.184 137.545 142.168 138.365 144.301 138.878L148.177 139.739C152.525 140.765 154.227 142.446 154.227 145.666Z" fill="#FA6400"/>
</svg>
