<svg id="Livello_1" data-name="Livello 1" xmlns="http://www.w3.org/2000/svg" viewBox="0 0 470.82 102.54"><defs><style>.cls-1,.cls-3{fill:#435070;}.cls-1,.cls-2{fill-rule:evenodd;}.cls-2,.cls-4{fill:#fff6f8;}</style></defs><title>Logo-v2</title><path class="cls-1" d="M15.2,74.6l11.2.9a3.58,3.58,0,1,0,.6-7.1l-11.2-.9a3.7,3.7,0,0,0-4.2,3.2A3.59,3.59,0,0,0,15.2,74.6Zm125.5,1.8C138.6,76.1,40,69.6,40,69.6v.1h0l-1.6-.1a4.21,4.21,0,0,0-.6,8.4l6.4.4v.2L94.8,82a4.21,4.21,0,0,1-.3,8.4h-.3L74,89h0l-11.9-.8h-.3a4.17,4.17,0,0,0-4.2,3.9,4.23,4.23,0,0,0,3.9,4.5l13.2.9,24,1.7a4.21,4.21,0,0,1-.3,8.4h-.3L75.4,106v.1l-13.3-.9h-.3a4.36,4.36,0,0,0-3.5,1.8,3.77,3.77,0,0,0-.7,2.1,4.23,4.23,0,0,0,3.9,4.5l14.5,1,5.2.4h0a86.7,86.7,0,0,0,8.8.6h0c1.9,0,3.8,0,5.7-.1a39.1,39.1,0,0,0,10.5-1.9c13.4-4.4,23.3-16.5,29.7-24.2h0c1.5-1.8,2.8-3.4,3.9-4.6C145.7,78.6,142.8,76.6,140.7,76.4ZM47.3,94.5l-11.2-.9a3.7,3.7,0,0,1-3.6-3.9,3.75,3.75,0,0,1,4.2-3.2l11.3.9a3.7,3.7,0,0,1,3.6,3.9A3.86,3.86,0,0,1,47.3,94.5Zm3.3,17-2.7-.2a3.47,3.47,0,0,1-3.3-3.7,3.68,3.68,0,0,1,4-3.1l2.7.2a3.47,3.47,0,0,1,3.3,3.7A3.61,3.61,0,0,1,50.6,111.5ZM22,90.3l2.6.2a3.61,3.61,0,0,0,4-3.1,3.47,3.47,0,0,0-3.3-3.7l-2.7-.2a3.61,3.61,0,0,0-4,3.1A3.43,3.43,0,0,0,22,90.3Z" transform="translate(-11.58 -13.06)"/><path class="cls-2" d="M42.6,53.4c-2,6,1.1,9.1,10.3,9.6s76.7,5.5,81.8,6,9.2-1.1,8.7-7.8-7-36.3-40.2-43.7c0,0-.4-3.9-2.8-3.9s-9.7-.7-10.5-.5-1.9,2.2-1.8,3-33-.1-45.5,37.3" transform="translate(-11.58 -13.06)"/><path class="cls-3" d="M187.6,47.9h24.7v7.4H196.5v9.1H210v7.4H196.5V87h-8.8V47.9Z" transform="translate(-11.58 -13.06)"/><path class="cls-3" d="M217,78.8c0-6.3,5-9.7,16.8-10.9-.2-2.6-1.5-4.3-4.7-4.3-2.5,0-5,1.1-7.9,2.7l-3.1-5.8a24.35,24.35,0,0,1,12.7-3.9c7.6,0,11.8,4.3,11.8,13.5v17h-7.2l-.6-3h-.2c-2.5,2.2-5.3,3.8-8.7,3.8A8.72,8.72,0,0,1,217,78.8Zm16.7-.4V73.2c-6.3.8-8.3,2.6-8.3,4.9,0,1.9,1.3,2.9,3.4,2.9S232.1,80,233.7,78.4Z" transform="translate(-11.58 -13.06)"/><path class="cls-3" d="M247.3,83.6l4-5.5c2.7,2,5.2,3.1,7.7,3.1s3.8-1,3.8-2.6c0-2-3-2.8-6-4-3.6-1.4-7.9-3.8-7.9-8.8,0-5.5,4.5-9.3,11.4-9.3a16.39,16.39,0,0,1,10.5,3.8l-3.9,5.3a11.21,11.21,0,0,0-6.3-2.5c-2.3,0-3.4.9-3.4,2.4,0,1.9,2.8,2.6,5.9,3.7,3.8,1.4,8,3.5,8,9s-4.3,9.6-12.2,9.6A19.13,19.13,0,0,1,247.3,83.6Z" transform="translate(-11.58 -13.06)"/><path class="cls-3" d="M277.7,76.2v-12h-4.1V57.6l4.6-.3,1-7.9h7.3v7.9h7.1v6.9h-7.1V76.1c0,3.4,1.5,4.7,3.9,4.7a8.21,8.21,0,0,0,2.8-.6l1.4,6.4a20.87,20.87,0,0,1-6.6,1.1C280.6,87.8,277.7,83.1,277.7,76.2Z" transform="translate(-11.58 -13.06)"/><path class="cls-3" d="M311.5,57.3h7.2l.6,3.8h.2c2.5-2.4,5.5-4.5,9.6-4.5,6.5,0,9.2,4.6,9.2,12V87h-8.8V69.7c0-4.3-1.1-5.6-3.7-5.6-2.2,0-3.6,1-5.5,2.9V87h-8.8V57.3Z" transform="translate(-11.58 -13.06)"/><path class="cls-4" d="M358.6,47.9h24.7v7.4H367.5v9.1H381v7.4H367.5V87h-8.8V47.9Z" transform="translate(-11.58 -13.06)"/><path class="cls-4" d="M387.5,72.2c0-9.9,7-15.6,14.5-15.6s14.5,5.7,14.5,15.6-7,15.6-14.5,15.6S387.5,82,387.5,72.2Zm20,0c0-5.2-1.8-8.5-5.5-8.5s-5.5,3.3-5.5,8.5,1.8,8.5,5.5,8.5S407.5,77.3,407.5,72.2Z" transform="translate(-11.58 -13.06)"/><path class="cls-4" d="M420.8,72.2c0-9.9,7-15.6,14.5-15.6s14.5,5.7,14.5,15.6-7,15.6-14.5,15.6S420.8,82,420.8,72.2Zm20,0c0-5.2-1.8-8.5-5.5-8.5s-5.5,3.3-5.5,8.5,1.8,8.5,5.5,8.5S440.8,77.3,440.8,72.2Z" transform="translate(-11.58 -13.06)"/><path class="cls-4" d="M454.3,72.2c0-9.7,6.1-15.6,12.3-15.6a9.7,9.7,0,0,1,7.3,3.1l-.3-4.5V45h8.8V87h-7.2l-.6-3h-.2a11.74,11.74,0,0,1-7.9,3.7C459.1,87.8,454.3,81.9,454.3,72.2Zm19.4,5.7V65.7a7.26,7.26,0,0,0-4.9-1.9c-2.9,0-5.4,2.6-5.4,8.3s2,8.5,5.4,8.5A6.2,6.2,0,0,0,473.7,77.9Z" transform="translate(-11.58 -13.06)"/></svg>