<svg id="Livello_1" data-name="Livello 1" xmlns="http://www.w3.org/2000/svg" viewBox="0 0 131.78 102.54"><defs><style>.cls-1{fill:#fa6400;}.cls-1,.cls-2{fill-rule:evenodd;}.cls-2{fill:#ff9d2b;}</style></defs><title>Logo</title><path class="cls-1" d="M15.69,102.88l11.16.88a3.83,3.83,0,0,0,4.25-3.24,3.69,3.69,0,0,0-3.57-3.86l-11.16-.88A3.82,3.82,0,0,0,12.13,99,3.68,3.68,0,0,0,15.69,102.88Zm125.49,1.7c-2.11-.28-100.65-6.74-100.65-6.74l0,.1h0L39,97.83a4.21,4.21,0,1,0-.58,8.4l6.35.43,0,.06s0,0,0,0l50.56,3.47a4.2,4.2,0,0,1-.28,8.4h-.3l-20.22-1.39v.05l-12-.82h-.29a4.21,4.21,0,0,0-.33,8.4l13.24.91,24,1.65a4.2,4.2,0,0,1-.28,8.4h-.3l-22.79-1.57v.07l-13.28-.91h-.29a4.21,4.21,0,0,0-3.49,1.84,4.12,4.12,0,0,0-.72,2.07A4.21,4.21,0,0,0,62,141.79l14.52,1,5.25.36h0c2.88.34,5.87.56,8.84.61h0c1.9,0,3.8,0,5.67-.13a42.52,42.52,0,0,0,10.47-1.87c13.37-4.4,23.35-16.49,29.72-24.21h0c1.51-1.83,2.82-3.42,3.92-4.6C146.22,106.81,143.28,104.86,141.18,104.58ZM47.85,122.76l-11.16-.88A3.68,3.68,0,0,1,33.13,118a3.82,3.82,0,0,1,4.24-3.24l11.16.88a3.69,3.69,0,0,1,3.57,3.86A3.83,3.83,0,0,1,47.85,122.76Zm3.27,17-2.65-.22a3.48,3.48,0,0,1-3.35-3.67,3.61,3.61,0,0,1,4-3.09l2.65.22a3.48,3.48,0,0,1,3.35,3.67A3.61,3.61,0,0,1,51.12,139.76ZM22.47,118.54l2.65.22a3.61,3.61,0,0,0,4-3.09A3.48,3.48,0,0,0,25.75,112l-2.65-.22a3.61,3.61,0,0,0-4,3.09A3.48,3.48,0,0,0,22.47,118.54Z" transform="translate(-12.11 -41.23)"/><path class="cls-2" d="M43.1,81.62c-2,6,1.11,9,10.32,9.6s76.74,5.49,81.77,6,9.21-1.09,8.65-7.81-7-36.34-40.19-43.75c0,0-.39-3.92-2.85-3.9s-9.71-.71-10.5-.53-1.86,2.19-1.76,3S55.56,44.23,43.1,81.62Z" transform="translate(-12.11 -41.23)"/></svg>